<mxfile host="65bd71144e">
    <diagram name="Page-1" id="64c3da0e-402f-94eb-ee01-a36477274f13">
        <mxGraphModel dx="1848" dy="1871" grid="1" gridSize="10" guides="1" tooltips="1" connect="1" arrows="1" fold="1" page="1" pageScale="1" pageWidth="1169" pageHeight="826" background="none" math="0" shadow="0">
            <root>
                <mxCell id="0"/>
                <mxCell id="1" parent="0"/>
                <mxCell id="2" value="核心技术能力" style="whiteSpace=wrap;rounded=1;shadow=1;fillColor=#10739E;strokeColor=none;fontColor=#FFFFFF;fontStyle=1;fontSize=24" parent="1" vertex="1">
                    <mxGeometry x="1320" y="50" width="340" height="60" as="geometry"/>
                </mxCell>
                <mxCell id="3" value="理论基础" style="whiteSpace=wrap;rounded=1;fillColor=#F2931E;strokeColor=none;shadow=1;fontColor=#FFFFFF;fontStyle=1;fontSize=14" parent="1" vertex="1">
                    <mxGeometry x="160" y="169.9999999999998" width="140" height="60" as="geometry"/>
                </mxCell>
                <mxCell id="4" value="主要编程语言" style="whiteSpace=wrap;rounded=1;fillColor=#F2931E;strokeColor=none;shadow=1;fontColor=#FFFFFF;fontStyle=1;fontSize=14" parent="1" vertex="1">
                    <mxGeometry x="530" y="169.9999999999998" width="140" height="60" as="geometry"/>
                </mxCell>
                <mxCell id="5" value="系统集成" style="whiteSpace=wrap;rounded=1;fillColor=#F2931E;strokeColor=none;shadow=1;fontColor=#FFFFFF;fontStyle=1;fontSize=14" parent="1" vertex="1">
                    <mxGeometry x="2010" y="169.9999999999998" width="140" height="60" as="geometry"/>
                </mxCell>
                <mxCell id="6" value="辅助编程语言" style="whiteSpace=wrap;rounded=1;fillColor=#F2931E;strokeColor=none;shadow=1;fontColor=#FFFFFF;fontStyle=1;fontSize=14" parent="1" vertex="1">
                    <mxGeometry x="900" y="169.9999999999998" width="140" height="60" as="geometry"/>
                </mxCell>
                <mxCell id="7" value="数据库与数据处理" style="whiteSpace=wrap;rounded=1;fillColor=#F2931E;strokeColor=none;shadow=1;fontColor=#FFFFFF;fontStyle=1;fontSize=14" parent="1" vertex="1">
                    <mxGeometry x="1270" y="169.9999999999998" width="140" height="60" as="geometry"/>
                </mxCell>
                <mxCell id="8" value="开发工具" style="whiteSpace=wrap;rounded=1;fillColor=#F2931E;strokeColor=none;shadow=1;fontColor=#FFFFFF;fontStyle=1;fontSize=14" parent="1" vertex="1">
                    <mxGeometry x="1640" y="169.9999999999998" width="140" height="60" as="geometry"/>
                </mxCell>
                <mxCell id="10" value="《制造执行系统（MES）设计与实施指南》" style="whiteSpace=wrap;rounded=1;fillColor=#12AAB5;strokeColor=none;shadow=1;fontColor=#FFFFFF;" parent="1" vertex="1">
                    <mxGeometry x="70" y="300.0000000000001" width="120" height="60" as="geometry"/>
                </mxCell>
                <mxCell id="12" value="领域知识" style="whiteSpace=wrap;rounded=1;fillColor=#12AAB5;strokeColor=none;shadow=1;fontColor=#FFFFFF;" parent="1" vertex="1">
                    <mxGeometry x="270" y="300.0000000000001" width="120" height="60" as="geometry"/>
                </mxCell>
                <mxCell id="23" value="《MES制造执行系统：原理与应用》" style="whiteSpace=wrap;rounded=1;fillColor=#999999;strokeColor=none;shadow=1;fontColor=#FFFFFF;fontStyle=0" parent="1" vertex="1">
                    <mxGeometry x="69.99999999999996" y="400.0000000000001" width="120" height="60" as="geometry"/>
                </mxCell>
                <mxCell id="24" value="《智能制造与MES系统设计》" style="whiteSpace=wrap;rounded=1;fillColor=#999999;strokeColor=none;shadow=1;fontColor=#FFFFFF;fontStyle=0" parent="1" vertex="1">
                    <mxGeometry x="70.0000000000001" y="480.0000000000001" width="120" height="60" as="geometry"/>
                </mxCell>
                <mxCell id="25" value="《MES系统实践指南》" style="whiteSpace=wrap;rounded=1;fillColor=#999999;strokeColor=none;shadow=1;fontColor=#FFFFFF;fontStyle=0" parent="1" vertex="1">
                    <mxGeometry x="70.00000000000006" y="560.0000000000001" width="120" height="60" as="geometry"/>
                </mxCell>
                <mxCell id="26" value="《从零开始学MES系统》" style="whiteSpace=wrap;rounded=1;fillColor=#999999;strokeColor=none;shadow=1;fontColor=#FFFFFF;fontStyle=0" parent="1" vertex="1">
                    <mxGeometry x="70.0000000000002" y="640.0000000000001" width="120" height="60" as="geometry"/>
                </mxCell>
                <mxCell id="27" value="《制造业信息化与MES系统》" style="whiteSpace=wrap;rounded=1;fillColor=#999999;strokeColor=none;shadow=1;fontColor=#FFFFFF;fontStyle=0" parent="1" vertex="1">
                    <mxGeometry x="70.00000000000036" y="720.0000000000001" width="120" height="60" as="geometry"/>
                </mxCell>
                <mxCell id="38" value="" style="whiteSpace=wrap;rounded=1;fillColor=#999999;strokeColor=none;shadow=1;fontColor=#FFFFFF;fontStyle=0" parent="1" vertex="1">
                    <mxGeometry x="269.9999999999996" y="400.0000000000001" width="120" height="60" as="geometry"/>
                </mxCell>
                <mxCell id="39" value="" style="whiteSpace=wrap;rounded=1;fillColor=#999999;strokeColor=none;shadow=1;fontColor=#FFFFFF;fontStyle=0" parent="1" vertex="1">
                    <mxGeometry x="269.9999999999998" y="480.0000000000001" width="120" height="60" as="geometry"/>
                </mxCell>
                <mxCell id="40" value="" style="whiteSpace=wrap;rounded=1;fillColor=#999999;strokeColor=none;shadow=1;fontColor=#FFFFFF;fontStyle=0" parent="1" vertex="1">
                    <mxGeometry x="269.9999999999997" y="560.0000000000001" width="120" height="60" as="geometry"/>
                </mxCell>
                <mxCell id="41" value="" style="whiteSpace=wrap;rounded=1;fillColor=#999999;strokeColor=none;shadow=1;fontColor=#FFFFFF;fontStyle=0" parent="1" vertex="1">
                    <mxGeometry x="269.9999999999999" y="640.0000000000001" width="120" height="60" as="geometry"/>
                </mxCell>
                <mxCell id="42" value="" style="whiteSpace=wrap;rounded=1;fillColor=#999999;strokeColor=none;shadow=1;fontColor=#FFFFFF;fontStyle=0" parent="1" vertex="1">
                    <mxGeometry x="270" y="720.0000000000001" width="120" height="60" as="geometry"/>
                </mxCell>
                <mxCell id="43" value="Java" style="whiteSpace=wrap;rounded=1;fillColor=#12AAB5;strokeColor=none;shadow=1;fontColor=#FFFFFF;" parent="1" vertex="1">
                    <mxGeometry x="439.9999999999998" y="300.0000000000001" width="120" height="60" as="geometry"/>
                </mxCell>
                <mxCell id="44" value="C#" style="whiteSpace=wrap;rounded=1;fillColor=#12AAB5;strokeColor=none;shadow=1;fontColor=#FFFFFF;" parent="1" vertex="1">
                    <mxGeometry x="639.9999999999998" y="300.0000000000001" width="120" height="60" as="geometry"/>
                </mxCell>
                <mxCell id="45" value="Spring Boot" style="whiteSpace=wrap;rounded=1;fillColor=#999999;strokeColor=none;shadow=1;fontColor=#FFFFFF;fontStyle=0" parent="1" vertex="1">
                    <mxGeometry x="439.9999999999997" y="400.0000000000001" width="120" height="60" as="geometry"/>
                </mxCell>
                <mxCell id="46" value="" style="whiteSpace=wrap;rounded=1;fillColor=#999999;strokeColor=none;shadow=1;fontColor=#FFFFFF;fontStyle=0" parent="1" vertex="1">
                    <mxGeometry x="439.9999999999999" y="480.0000000000001" width="120" height="60" as="geometry"/>
                </mxCell>
                <mxCell id="47" value="" style="whiteSpace=wrap;rounded=1;fillColor=#999999;strokeColor=none;shadow=1;fontColor=#FFFFFF;fontStyle=0" parent="1" vertex="1">
                    <mxGeometry x="439.99999999999983" y="560.0000000000001" width="120" height="60" as="geometry"/>
                </mxCell>
                <mxCell id="48" value="" style="whiteSpace=wrap;rounded=1;fillColor=#999999;strokeColor=none;shadow=1;fontColor=#FFFFFF;fontStyle=0" parent="1" vertex="1">
                    <mxGeometry x="440" y="640.0000000000001" width="120" height="60" as="geometry"/>
                </mxCell>
                <mxCell id="49" value="" style="whiteSpace=wrap;rounded=1;fillColor=#999999;strokeColor=none;shadow=1;fontColor=#FFFFFF;fontStyle=0" parent="1" vertex="1">
                    <mxGeometry x="440.0000000000001" y="720.0000000000001" width="120" height="60" as="geometry"/>
                </mxCell>
                <mxCell id="50" value=".NET Core" style="whiteSpace=wrap;rounded=1;fillColor=#999999;strokeColor=none;shadow=1;fontColor=#FFFFFF;fontStyle=0" parent="1" vertex="1">
                    <mxGeometry x="639.9999999999993" y="400.0000000000001" width="120" height="60" as="geometry"/>
                </mxCell>
                <mxCell id="51" value="winform" style="whiteSpace=wrap;rounded=1;fillColor=#999999;strokeColor=none;shadow=1;fontColor=#FFFFFF;fontStyle=0" parent="1" vertex="1">
                    <mxGeometry x="639.9999999999995" y="480.0000000000001" width="120" height="60" as="geometry"/>
                </mxCell>
                <mxCell id="52" value="WPF" style="whiteSpace=wrap;rounded=1;fillColor=#999999;strokeColor=none;shadow=1;fontColor=#FFFFFF;fontStyle=0" parent="1" vertex="1">
                    <mxGeometry x="639.9999999999995" y="560.0000000000001" width="120" height="60" as="geometry"/>
                </mxCell>
                <mxCell id="53" value="ASP.NET MVC" style="whiteSpace=wrap;rounded=1;fillColor=#999999;strokeColor=none;shadow=1;fontColor=#FFFFFF;fontStyle=0" parent="1" vertex="1">
                    <mxGeometry x="639.9999999999997" y="640.0000000000001" width="120" height="60" as="geometry"/>
                </mxCell>
                <mxCell id="54" value="" style="whiteSpace=wrap;rounded=1;fillColor=#999999;strokeColor=none;shadow=1;fontColor=#FFFFFF;fontStyle=0" parent="1" vertex="1">
                    <mxGeometry x="639.9999999999998" y="720.0000000000001" width="120" height="60" as="geometry"/>
                </mxCell>
                <mxCell id="103" value="" style="edgeStyle=elbowEdgeStyle;elbow=vertical;rounded=0;fontColor=#000000;endArrow=none;endFill=0;strokeWidth=8;strokeColor=#23445D;" parent="1" source="3" target="10" edge="1">
                    <mxGeometry width="100" height="100" relative="1" as="geometry">
                        <mxPoint x="20" y="290" as="sourcePoint"/>
                        <mxPoint x="120" y="190" as="targetPoint"/>
                    </mxGeometry>
                </mxCell>
                <mxCell id="104" value="" style="edgeStyle=elbowEdgeStyle;elbow=vertical;rounded=0;fontColor=#000000;endArrow=none;endFill=0;strokeWidth=8;strokeColor=#23445D;" parent="1" source="3" target="12" edge="1">
                    <mxGeometry width="100" height="100" relative="1" as="geometry">
                        <mxPoint x="360" y="290" as="sourcePoint"/>
                        <mxPoint x="460" y="190" as="targetPoint"/>
                    </mxGeometry>
                </mxCell>
                <mxCell id="105" value="" style="edgeStyle=elbowEdgeStyle;elbow=horizontal;rounded=0;fontColor=#000000;endArrow=none;endFill=0;strokeWidth=8;strokeColor=#23445D;" parent="1" source="10" target="23" edge="1">
                    <mxGeometry width="100" height="100" relative="1" as="geometry">
                        <mxPoint x="10" y="480" as="sourcePoint"/>
                        <mxPoint x="110" y="380" as="targetPoint"/>
                        <Array as="points">
                            <mxPoint x="50" y="380"/>
                        </Array>
                    </mxGeometry>
                </mxCell>
                <mxCell id="106" value="" style="edgeStyle=elbowEdgeStyle;elbow=horizontal;rounded=0;fontColor=#000000;endArrow=none;endFill=0;strokeWidth=8;strokeColor=#23445D;" parent="1" source="10" target="24" edge="1">
                    <mxGeometry width="100" height="100" relative="1" as="geometry">
                        <mxPoint x="80" y="340" as="sourcePoint"/>
                        <mxPoint x="80" y="440" as="targetPoint"/>
                        <Array as="points">
                            <mxPoint x="50" y="400"/>
                        </Array>
                    </mxGeometry>
                </mxCell>
                <mxCell id="107" value="" style="edgeStyle=elbowEdgeStyle;elbow=horizontal;rounded=0;fontColor=#000000;endArrow=none;endFill=0;strokeWidth=8;strokeColor=#23445D;" parent="1" source="10" target="27" edge="1">
                    <mxGeometry width="100" height="100" relative="1" as="geometry">
                        <mxPoint x="80" y="340" as="sourcePoint"/>
                        <mxPoint x="80" y="440" as="targetPoint"/>
                        <Array as="points">
                            <mxPoint x="50" y="540"/>
                        </Array>
                    </mxGeometry>
                </mxCell>
                <mxCell id="109" value="" style="edgeStyle=elbowEdgeStyle;elbow=horizontal;rounded=0;fontColor=#000000;endArrow=none;endFill=0;strokeWidth=8;strokeColor=#23445D;" parent="1" source="10" target="26" edge="1">
                    <mxGeometry width="100" height="100" relative="1" as="geometry">
                        <mxPoint x="100" y="360" as="sourcePoint"/>
                        <mxPoint x="100" y="460" as="targetPoint"/>
                        <Array as="points">
                            <mxPoint x="50" y="410"/>
                        </Array>
                    </mxGeometry>
                </mxCell>
                <mxCell id="110" value="" style="edgeStyle=elbowEdgeStyle;elbow=horizontal;rounded=0;fontColor=#000000;endArrow=none;endFill=0;strokeWidth=8;strokeColor=#23445D;" parent="1" source="10" target="25" edge="1">
                    <mxGeometry width="100" height="100" relative="1" as="geometry">
                        <mxPoint x="110" y="370" as="sourcePoint"/>
                        <mxPoint x="110" y="470" as="targetPoint"/>
                        <Array as="points">
                            <mxPoint x="50" y="430"/>
                        </Array>
                    </mxGeometry>
                </mxCell>
                <mxCell id="111" value="" style="edgeStyle=elbowEdgeStyle;elbow=horizontal;rounded=0;fontColor=#000000;endArrow=none;endFill=0;strokeWidth=8;strokeColor=#23445D;" parent="1" target="38" edge="1">
                    <mxGeometry width="100" height="100" relative="1" as="geometry">
                        <mxPoint x="260" y="330.0000000000004" as="sourcePoint"/>
                        <mxPoint x="260" y="430.0000000000004" as="targetPoint"/>
                        <Array as="points">
                            <mxPoint x="250" y="380"/>
                        </Array>
                    </mxGeometry>
                </mxCell>
                <mxCell id="112" value="" style="edgeStyle=elbowEdgeStyle;elbow=horizontal;rounded=0;fontColor=#000000;endArrow=none;endFill=0;strokeWidth=8;strokeColor=#23445D;" parent="1" source="12" target="39" edge="1">
                    <mxGeometry width="100" height="100" relative="1" as="geometry">
                        <mxPoint x="260" y="330.0000000000004" as="sourcePoint"/>
                        <mxPoint x="260" y="510.0000000000004" as="targetPoint"/>
                        <Array as="points">
                            <mxPoint x="250" y="420"/>
                        </Array>
                    </mxGeometry>
                </mxCell>
                <mxCell id="113" value="" style="edgeStyle=elbowEdgeStyle;elbow=horizontal;rounded=0;fontColor=#000000;endArrow=none;endFill=0;strokeWidth=8;strokeColor=#23445D;" parent="1" source="12" target="42" edge="1">
                    <mxGeometry width="100" height="100" relative="1" as="geometry">
                        <mxPoint x="260" y="330.0000000000004" as="sourcePoint"/>
                        <mxPoint x="260.00000000000045" y="750.0000000000003" as="targetPoint"/>
                        <Array as="points">
                            <mxPoint x="250" y="540"/>
                        </Array>
                    </mxGeometry>
                </mxCell>
                <mxCell id="114" value="" style="edgeStyle=elbowEdgeStyle;elbow=horizontal;rounded=0;fontColor=#000000;endArrow=none;endFill=0;strokeWidth=8;strokeColor=#23445D;" parent="1" source="12" target="41" edge="1">
                    <mxGeometry width="100" height="100" relative="1" as="geometry">
                        <mxPoint x="260" y="330.0000000000004" as="sourcePoint"/>
                        <mxPoint x="260.0000000000002" y="670.0000000000003" as="targetPoint"/>
                        <Array as="points">
                            <mxPoint x="250" y="500"/>
                        </Array>
                    </mxGeometry>
                </mxCell>
                <mxCell id="115" value="" style="edgeStyle=elbowEdgeStyle;elbow=horizontal;rounded=0;fontColor=#000000;endArrow=none;endFill=0;strokeWidth=8;strokeColor=#23445D;" parent="1" source="12" target="40" edge="1">
                    <mxGeometry width="100" height="100" relative="1" as="geometry">
                        <mxPoint x="260" y="330.0000000000004" as="sourcePoint"/>
                        <mxPoint x="260" y="590.0000000000003" as="targetPoint"/>
                        <Array as="points">
                            <mxPoint x="250" y="460"/>
                        </Array>
                    </mxGeometry>
                </mxCell>
                <mxCell id="116" value="" style="edgeStyle=elbowEdgeStyle;elbow=vertical;rounded=0;fontColor=#000000;endArrow=none;endFill=0;strokeWidth=8;strokeColor=#23445D;" parent="1" source="4" target="43" edge="1">
                    <mxGeometry width="100" height="100" relative="1" as="geometry">
                        <mxPoint x="240" y="239.99999999999977" as="sourcePoint"/>
                        <mxPoint x="140" y="310" as="targetPoint"/>
                    </mxGeometry>
                </mxCell>
                <mxCell id="117" value="" style="edgeStyle=elbowEdgeStyle;elbow=vertical;rounded=0;fontColor=#000000;endArrow=none;endFill=0;strokeWidth=8;strokeColor=#23445D;" parent="1" source="4" target="44" edge="1">
                    <mxGeometry width="100" height="100" relative="1" as="geometry">
                        <mxPoint x="240" y="239.99999999999977" as="sourcePoint"/>
                        <mxPoint x="340" y="310" as="targetPoint"/>
                    </mxGeometry>
                </mxCell>
                <mxCell id="118" value="" style="edgeStyle=elbowEdgeStyle;elbow=horizontal;rounded=0;fontColor=#000000;endArrow=none;endFill=0;strokeWidth=8;strokeColor=#23445D;" parent="1" source="43" target="45" edge="1">
                    <mxGeometry width="100" height="100" relative="1" as="geometry">
                        <mxPoint x="420" y="330.00000000000045" as="sourcePoint"/>
                        <mxPoint x="429.99999999999955" y="430" as="targetPoint"/>
                        <Array as="points">
                            <mxPoint x="420" y="380"/>
                        </Array>
                    </mxGeometry>
                </mxCell>
                <mxCell id="119" value="" style="edgeStyle=elbowEdgeStyle;elbow=horizontal;rounded=0;fontColor=#000000;endArrow=none;endFill=0;strokeWidth=8;strokeColor=#23445D;" parent="1" source="43" target="46" edge="1">
                    <mxGeometry width="100" height="100" relative="1" as="geometry">
                        <mxPoint x="430" y="330" as="sourcePoint"/>
                        <mxPoint x="429.9999999999998" y="510" as="targetPoint"/>
                        <Array as="points">
                            <mxPoint x="420" y="420"/>
                        </Array>
                    </mxGeometry>
                </mxCell>
                <mxCell id="120" value="" style="edgeStyle=elbowEdgeStyle;elbow=horizontal;rounded=0;fontColor=#000000;endArrow=none;endFill=0;strokeWidth=8;strokeColor=#23445D;" parent="1" source="43" target="49" edge="1">
                    <mxGeometry width="100" height="100" relative="1" as="geometry">
                        <mxPoint x="430" y="330" as="sourcePoint"/>
                        <mxPoint x="430" y="750" as="targetPoint"/>
                        <Array as="points">
                            <mxPoint x="420" y="550"/>
                        </Array>
                    </mxGeometry>
                </mxCell>
                <mxCell id="121" value="" style="edgeStyle=elbowEdgeStyle;elbow=horizontal;rounded=0;fontColor=#000000;endArrow=none;endFill=0;strokeWidth=8;strokeColor=#23445D;" parent="1" source="43" target="48" edge="1">
                    <mxGeometry width="100" height="100" relative="1" as="geometry">
                        <mxPoint x="430" y="330" as="sourcePoint"/>
                        <mxPoint x="430" y="670" as="targetPoint"/>
                        <Array as="points">
                            <mxPoint x="420" y="500"/>
                        </Array>
                    </mxGeometry>
                </mxCell>
                <mxCell id="122" value="" style="edgeStyle=elbowEdgeStyle;elbow=horizontal;rounded=0;fontColor=#000000;endArrow=none;endFill=0;strokeWidth=8;strokeColor=#23445D;" parent="1" source="43" target="47" edge="1">
                    <mxGeometry width="100" height="100" relative="1" as="geometry">
                        <mxPoint x="430" y="330" as="sourcePoint"/>
                        <mxPoint x="429.9999999999998" y="590" as="targetPoint"/>
                        <Array as="points">
                            <mxPoint x="420" y="470"/>
                        </Array>
                    </mxGeometry>
                </mxCell>
                <mxCell id="123" value="" style="edgeStyle=elbowEdgeStyle;elbow=horizontal;rounded=0;fontColor=#000000;endArrow=none;endFill=0;strokeWidth=8;strokeColor=#23445D;" parent="1" source="44" target="50" edge="1">
                    <mxGeometry width="100" height="100" relative="1" as="geometry">
                        <mxPoint x="610" y="330.00000000000045" as="sourcePoint"/>
                        <mxPoint x="619.9999999999995" y="430" as="targetPoint"/>
                        <Array as="points">
                            <mxPoint x="620" y="380"/>
                        </Array>
                    </mxGeometry>
                </mxCell>
                <mxCell id="124" value="" style="edgeStyle=elbowEdgeStyle;elbow=horizontal;rounded=0;fontColor=#000000;endArrow=none;endFill=0;strokeWidth=8;strokeColor=#23445D;" parent="1" source="44" target="51" edge="1">
                    <mxGeometry width="100" height="100" relative="1" as="geometry">
                        <mxPoint x="620" y="330" as="sourcePoint"/>
                        <mxPoint x="619.9999999999998" y="510" as="targetPoint"/>
                        <Array as="points">
                            <mxPoint x="620" y="420"/>
                        </Array>
                    </mxGeometry>
                </mxCell>
                <mxCell id="125" value="" style="edgeStyle=elbowEdgeStyle;elbow=horizontal;rounded=0;fontColor=#000000;endArrow=none;endFill=0;strokeWidth=8;strokeColor=#23445D;" parent="1" source="44" target="54" edge="1">
                    <mxGeometry width="100" height="100" relative="1" as="geometry">
                        <mxPoint x="620" y="330" as="sourcePoint"/>
                        <mxPoint x="620" y="750" as="targetPoint"/>
                        <Array as="points">
                            <mxPoint x="620" y="540"/>
                        </Array>
                    </mxGeometry>
                </mxCell>
                <mxCell id="126" value="" style="edgeStyle=elbowEdgeStyle;elbow=horizontal;rounded=0;fontColor=#000000;endArrow=none;endFill=0;strokeWidth=8;strokeColor=#23445D;" parent="1" source="44" target="53" edge="1">
                    <mxGeometry width="100" height="100" relative="1" as="geometry">
                        <mxPoint x="620" y="330" as="sourcePoint"/>
                        <mxPoint x="620" y="670" as="targetPoint"/>
                        <Array as="points">
                            <mxPoint x="620" y="500"/>
                        </Array>
                    </mxGeometry>
                </mxCell>
                <mxCell id="127" value="" style="edgeStyle=elbowEdgeStyle;elbow=horizontal;rounded=0;fontColor=#000000;endArrow=none;endFill=0;strokeWidth=8;strokeColor=#23445D;" parent="1" source="44" target="52" edge="1">
                    <mxGeometry width="100" height="100" relative="1" as="geometry">
                        <mxPoint x="620" y="330" as="sourcePoint"/>
                        <mxPoint x="619.9999999999998" y="590" as="targetPoint"/>
                        <Array as="points">
                            <mxPoint x="620" y="470"/>
                        </Array>
                    </mxGeometry>
                </mxCell>
                <mxCell id="133" value="Python" style="whiteSpace=wrap;rounded=1;fillColor=#12AAB5;strokeColor=none;shadow=1;fontColor=#FFFFFF;" parent="1" vertex="1">
                    <mxGeometry x="809.9999999999998" y="300.0000000000001" width="120" height="60" as="geometry"/>
                </mxCell>
                <mxCell id="134" value="TypeScript" style="whiteSpace=wrap;rounded=1;fillColor=#12AAB5;strokeColor=none;shadow=1;fontColor=#FFFFFF;" parent="1" vertex="1">
                    <mxGeometry x="1009.9999999999998" y="300.0000000000001" width="120" height="60" as="geometry"/>
                </mxCell>
                <mxCell id="135" value="Pandas/NumPy" style="whiteSpace=wrap;rounded=1;fillColor=#999999;strokeColor=none;shadow=1;fontColor=#FFFFFF;fontStyle=0" parent="1" vertex="1">
                    <mxGeometry x="809.9999999999998" y="400.0000000000001" width="120" height="60" as="geometry"/>
                </mxCell>
                <mxCell id="136" value="WORK&#xa;PACKAGE 2" style="whiteSpace=wrap;rounded=1;fillColor=#999999;strokeColor=none;shadow=1;fontColor=#FFFFFF;fontStyle=0" parent="1" vertex="1">
                    <mxGeometry x="809.9999999999999" y="480.0000000000001" width="120" height="60" as="geometry"/>
                </mxCell>
                <mxCell id="137" value="WORK&#xa;PACKAGE 3" style="whiteSpace=wrap;rounded=1;fillColor=#999999;strokeColor=none;shadow=1;fontColor=#FFFFFF;fontStyle=0" parent="1" vertex="1">
                    <mxGeometry x="809.9999999999998" y="560.0000000000001" width="120" height="60" as="geometry"/>
                </mxCell>
                <mxCell id="138" value="" style="whiteSpace=wrap;rounded=1;fillColor=#999999;strokeColor=none;shadow=1;fontColor=#FFFFFF;fontStyle=0" parent="1" vertex="1">
                    <mxGeometry x="810" y="640.0000000000001" width="120" height="60" as="geometry"/>
                </mxCell>
                <mxCell id="139" value="" style="whiteSpace=wrap;rounded=1;fillColor=#999999;strokeColor=none;shadow=1;fontColor=#FFFFFF;fontStyle=0" parent="1" vertex="1">
                    <mxGeometry x="810.0000000000001" y="720.0000000000001" width="120" height="60" as="geometry"/>
                </mxCell>
                <mxCell id="140" value="Vue" style="whiteSpace=wrap;rounded=1;fillColor=#999999;strokeColor=none;shadow=1;fontColor=#FFFFFF;fontStyle=0" parent="1" vertex="1">
                    <mxGeometry x="1009.9999999999993" y="400.0000000000001" width="120" height="60" as="geometry"/>
                </mxCell>
                <mxCell id="141" value="Element UI" style="whiteSpace=wrap;rounded=1;fillColor=#999999;strokeColor=none;shadow=1;fontColor=#FFFFFF;fontStyle=0" parent="1" vertex="1">
                    <mxGeometry x="1009.9999999999995" y="480.0000000000001" width="120" height="60" as="geometry"/>
                </mxCell>
                <mxCell id="142" value="" style="whiteSpace=wrap;rounded=1;fillColor=#999999;strokeColor=none;shadow=1;fontColor=#FFFFFF;fontStyle=0" parent="1" vertex="1">
                    <mxGeometry x="1009.9999999999995" y="560.0000000000001" width="120" height="60" as="geometry"/>
                </mxCell>
                <mxCell id="143" value="" style="whiteSpace=wrap;rounded=1;fillColor=#999999;strokeColor=none;shadow=1;fontColor=#FFFFFF;fontStyle=0" parent="1" vertex="1">
                    <mxGeometry x="1009.9999999999997" y="640.0000000000001" width="120" height="60" as="geometry"/>
                </mxCell>
                <mxCell id="144" value="" style="whiteSpace=wrap;rounded=1;fillColor=#999999;strokeColor=none;shadow=1;fontColor=#FFFFFF;fontStyle=0" parent="1" vertex="1">
                    <mxGeometry x="1009.9999999999998" y="720.0000000000001" width="120" height="60" as="geometry"/>
                </mxCell>
                <mxCell id="145" value="" style="edgeStyle=elbowEdgeStyle;elbow=horizontal;rounded=0;fontColor=#000000;endArrow=none;endFill=0;strokeWidth=8;strokeColor=#23445D;" parent="1" source="133" target="135" edge="1">
                    <mxGeometry width="100" height="100" relative="1" as="geometry">
                        <mxPoint x="790" y="330.00000000000045" as="sourcePoint"/>
                        <mxPoint x="799.9999999999995" y="430" as="targetPoint"/>
                        <Array as="points">
                            <mxPoint x="790" y="380"/>
                        </Array>
                    </mxGeometry>
                </mxCell>
                <mxCell id="146" value="" style="edgeStyle=elbowEdgeStyle;elbow=horizontal;rounded=0;fontColor=#000000;endArrow=none;endFill=0;strokeWidth=8;strokeColor=#23445D;" parent="1" source="133" target="136" edge="1">
                    <mxGeometry width="100" height="100" relative="1" as="geometry">
                        <mxPoint x="800" y="330" as="sourcePoint"/>
                        <mxPoint x="799.9999999999998" y="510" as="targetPoint"/>
                        <Array as="points">
                            <mxPoint x="790" y="420"/>
                        </Array>
                    </mxGeometry>
                </mxCell>
                <mxCell id="147" value="" style="edgeStyle=elbowEdgeStyle;elbow=horizontal;rounded=0;fontColor=#000000;endArrow=none;endFill=0;strokeWidth=8;strokeColor=#23445D;" parent="1" source="133" target="139" edge="1">
                    <mxGeometry width="100" height="100" relative="1" as="geometry">
                        <mxPoint x="800" y="330" as="sourcePoint"/>
                        <mxPoint x="800" y="750" as="targetPoint"/>
                        <Array as="points">
                            <mxPoint x="790" y="550"/>
                        </Array>
                    </mxGeometry>
                </mxCell>
                <mxCell id="148" value="" style="edgeStyle=elbowEdgeStyle;elbow=horizontal;rounded=0;fontColor=#000000;endArrow=none;endFill=0;strokeWidth=8;strokeColor=#23445D;" parent="1" source="133" target="138" edge="1">
                    <mxGeometry width="100" height="100" relative="1" as="geometry">
                        <mxPoint x="800" y="330" as="sourcePoint"/>
                        <mxPoint x="800" y="670" as="targetPoint"/>
                        <Array as="points">
                            <mxPoint x="790" y="500"/>
                        </Array>
                    </mxGeometry>
                </mxCell>
                <mxCell id="149" value="" style="edgeStyle=elbowEdgeStyle;elbow=horizontal;rounded=0;fontColor=#000000;endArrow=none;endFill=0;strokeWidth=8;strokeColor=#23445D;" parent="1" source="133" target="137" edge="1">
                    <mxGeometry width="100" height="100" relative="1" as="geometry">
                        <mxPoint x="800" y="330" as="sourcePoint"/>
                        <mxPoint x="799.9999999999998" y="590" as="targetPoint"/>
                        <Array as="points">
                            <mxPoint x="790" y="470"/>
                        </Array>
                    </mxGeometry>
                </mxCell>
                <mxCell id="150" value="" style="edgeStyle=elbowEdgeStyle;elbow=horizontal;rounded=0;fontColor=#000000;endArrow=none;endFill=0;strokeWidth=8;strokeColor=#23445D;" parent="1" source="134" target="140" edge="1">
                    <mxGeometry width="100" height="100" relative="1" as="geometry">
                        <mxPoint x="980" y="330.00000000000045" as="sourcePoint"/>
                        <mxPoint x="989.9999999999995" y="430" as="targetPoint"/>
                        <Array as="points">
                            <mxPoint x="990" y="380"/>
                        </Array>
                    </mxGeometry>
                </mxCell>
                <mxCell id="151" value="" style="edgeStyle=elbowEdgeStyle;elbow=horizontal;rounded=0;fontColor=#000000;endArrow=none;endFill=0;strokeWidth=8;strokeColor=#23445D;" parent="1" source="134" target="141" edge="1">
                    <mxGeometry width="100" height="100" relative="1" as="geometry">
                        <mxPoint x="990" y="330" as="sourcePoint"/>
                        <mxPoint x="989.9999999999998" y="510" as="targetPoint"/>
                        <Array as="points">
                            <mxPoint x="990" y="420"/>
                        </Array>
                    </mxGeometry>
                </mxCell>
                <mxCell id="152" value="" style="edgeStyle=elbowEdgeStyle;elbow=horizontal;rounded=0;fontColor=#000000;endArrow=none;endFill=0;strokeWidth=8;strokeColor=#23445D;" parent="1" source="134" target="144" edge="1">
                    <mxGeometry width="100" height="100" relative="1" as="geometry">
                        <mxPoint x="990" y="330" as="sourcePoint"/>
                        <mxPoint x="990" y="750" as="targetPoint"/>
                        <Array as="points">
                            <mxPoint x="990" y="540"/>
                        </Array>
                    </mxGeometry>
                </mxCell>
                <mxCell id="153" value="" style="edgeStyle=elbowEdgeStyle;elbow=horizontal;rounded=0;fontColor=#000000;endArrow=none;endFill=0;strokeWidth=8;strokeColor=#23445D;" parent="1" source="134" target="143" edge="1">
                    <mxGeometry width="100" height="100" relative="1" as="geometry">
                        <mxPoint x="990" y="330" as="sourcePoint"/>
                        <mxPoint x="990" y="670" as="targetPoint"/>
                        <Array as="points">
                            <mxPoint x="990" y="500"/>
                        </Array>
                    </mxGeometry>
                </mxCell>
                <mxCell id="154" value="" style="edgeStyle=elbowEdgeStyle;elbow=horizontal;rounded=0;fontColor=#000000;endArrow=none;endFill=0;strokeWidth=8;strokeColor=#23445D;" parent="1" source="134" target="142" edge="1">
                    <mxGeometry width="100" height="100" relative="1" as="geometry">
                        <mxPoint x="990" y="330" as="sourcePoint"/>
                        <mxPoint x="989.9999999999998" y="590" as="targetPoint"/>
                        <Array as="points">
                            <mxPoint x="990" y="470"/>
                        </Array>
                    </mxGeometry>
                </mxCell>
                <mxCell id="155" value="数据库操作" style="whiteSpace=wrap;rounded=1;fillColor=#12AAB5;strokeColor=none;shadow=1;fontColor=#FFFFFF;" parent="1" vertex="1">
                    <mxGeometry x="1179.9999999999998" y="300.0000000000002" width="120" height="60" as="geometry"/>
                </mxCell>
                <mxCell id="156" value="数据分析" style="whiteSpace=wrap;rounded=1;fillColor=#12AAB5;strokeColor=none;shadow=1;fontColor=#FFFFFF;" parent="1" vertex="1">
                    <mxGeometry x="1379.9999999999998" y="300.0000000000002" width="120" height="60" as="geometry"/>
                </mxCell>
                <mxCell id="157" value="MY SQL" style="whiteSpace=wrap;rounded=1;fillColor=#999999;strokeColor=none;shadow=1;fontColor=#FFFFFF;fontStyle=0" parent="1" vertex="1">
                    <mxGeometry x="1179.9999999999998" y="400.0000000000002" width="120" height="60" as="geometry"/>
                </mxCell>
                <mxCell id="158" value="ORACLE" style="whiteSpace=wrap;rounded=1;fillColor=#999999;strokeColor=none;shadow=1;fontColor=#FFFFFF;fontStyle=0" parent="1" vertex="1">
                    <mxGeometry x="1180" y="480.0000000000002" width="120" height="60" as="geometry"/>
                </mxCell>
                <mxCell id="159" value="SQL SERVER" style="whiteSpace=wrap;rounded=1;fillColor=#999999;strokeColor=none;shadow=1;fontColor=#FFFFFF;fontStyle=0" parent="1" vertex="1">
                    <mxGeometry x="1179.9999999999998" y="560.0000000000002" width="120" height="60" as="geometry"/>
                </mxCell>
                <mxCell id="160" value="SQL 优化" style="whiteSpace=wrap;rounded=1;fillColor=#999999;strokeColor=none;shadow=1;fontColor=#FFFFFF;fontStyle=0" parent="1" vertex="1">
                    <mxGeometry x="1180" y="640.0000000000002" width="120" height="60" as="geometry"/>
                </mxCell>
                <mxCell id="161" value="存储过程" style="whiteSpace=wrap;rounded=1;fillColor=#999999;strokeColor=none;shadow=1;fontColor=#FFFFFF;fontStyle=0" parent="1" vertex="1">
                    <mxGeometry x="1180" y="720.0000000000002" width="120" height="60" as="geometry"/>
                </mxCell>
                <mxCell id="162" value="Python/R生产数据挖掘" style="whiteSpace=wrap;rounded=1;fillColor=#999999;strokeColor=none;shadow=1;fontColor=#FFFFFF;fontStyle=0" parent="1" vertex="1">
                    <mxGeometry x="1379.9999999999993" y="400.0000000000002" width="120" height="60" as="geometry"/>
                </mxCell>
                <mxCell id="163" value="Tableau可视化报表开发" style="whiteSpace=wrap;rounded=1;fillColor=#999999;strokeColor=none;shadow=1;fontColor=#FFFFFF;fontStyle=0" parent="1" vertex="1">
                    <mxGeometry x="1379.9999999999995" y="480.0000000000002" width="120" height="60" as="geometry"/>
                </mxCell>
                <mxCell id="164" value="POWER BI" style="whiteSpace=wrap;rounded=1;fillColor=#999999;strokeColor=none;shadow=1;fontColor=#FFFFFF;fontStyle=0" parent="1" vertex="1">
                    <mxGeometry x="1379.9999999999995" y="560.0000000000002" width="120" height="60" as="geometry"/>
                </mxCell>
                <mxCell id="165" value="帆软报表" style="whiteSpace=wrap;rounded=1;fillColor=#999999;strokeColor=none;shadow=1;fontColor=#FFFFFF;fontStyle=0" parent="1" vertex="1">
                    <mxGeometry x="1379.9999999999995" y="640.0000000000002" width="120" height="60" as="geometry"/>
                </mxCell>
                <mxCell id="166" value="" style="whiteSpace=wrap;rounded=1;fillColor=#999999;strokeColor=none;shadow=1;fontColor=#FFFFFF;fontStyle=0" parent="1" vertex="1">
                    <mxGeometry x="1379.9999999999998" y="720.0000000000002" width="120" height="60" as="geometry"/>
                </mxCell>
                <mxCell id="167" value="" style="edgeStyle=elbowEdgeStyle;elbow=horizontal;rounded=0;fontColor=#000000;endArrow=none;endFill=0;strokeWidth=8;strokeColor=#23445D;" parent="1" source="155" target="157" edge="1">
                    <mxGeometry width="100" height="100" relative="1" as="geometry">
                        <mxPoint x="1160" y="330.00000000000057" as="sourcePoint"/>
                        <mxPoint x="1169.9999999999995" y="430.0000000000001" as="targetPoint"/>
                        <Array as="points">
                            <mxPoint x="1160" y="380.0000000000001"/>
                        </Array>
                    </mxGeometry>
                </mxCell>
                <mxCell id="168" value="" style="edgeStyle=elbowEdgeStyle;elbow=horizontal;rounded=0;fontColor=#000000;endArrow=none;endFill=0;strokeWidth=8;strokeColor=#23445D;" parent="1" source="155" target="158" edge="1">
                    <mxGeometry width="100" height="100" relative="1" as="geometry">
                        <mxPoint x="1170" y="330.0000000000001" as="sourcePoint"/>
                        <mxPoint x="1169.9999999999998" y="510.0000000000001" as="targetPoint"/>
                        <Array as="points">
                            <mxPoint x="1160" y="420.0000000000001"/>
                        </Array>
                    </mxGeometry>
                </mxCell>
                <mxCell id="169" value="" style="edgeStyle=elbowEdgeStyle;elbow=horizontal;rounded=0;fontColor=#000000;endArrow=none;endFill=0;strokeWidth=8;strokeColor=#23445D;" parent="1" source="155" target="161" edge="1">
                    <mxGeometry width="100" height="100" relative="1" as="geometry">
                        <mxPoint x="1170" y="330.0000000000001" as="sourcePoint"/>
                        <mxPoint x="1170" y="750.0000000000001" as="targetPoint"/>
                        <Array as="points">
                            <mxPoint x="1160" y="550.0000000000001"/>
                        </Array>
                    </mxGeometry>
                </mxCell>
                <mxCell id="170" value="" style="edgeStyle=elbowEdgeStyle;elbow=horizontal;rounded=0;fontColor=#000000;endArrow=none;endFill=0;strokeWidth=8;strokeColor=#23445D;" parent="1" source="155" target="160" edge="1">
                    <mxGeometry width="100" height="100" relative="1" as="geometry">
                        <mxPoint x="1170" y="330.0000000000001" as="sourcePoint"/>
                        <mxPoint x="1170" y="670.0000000000001" as="targetPoint"/>
                        <Array as="points">
                            <mxPoint x="1160" y="500.0000000000001"/>
                        </Array>
                    </mxGeometry>
                </mxCell>
                <mxCell id="171" value="" style="edgeStyle=elbowEdgeStyle;elbow=horizontal;rounded=0;fontColor=#000000;endArrow=none;endFill=0;strokeWidth=8;strokeColor=#23445D;" parent="1" source="155" target="159" edge="1">
                    <mxGeometry width="100" height="100" relative="1" as="geometry">
                        <mxPoint x="1170" y="330.0000000000001" as="sourcePoint"/>
                        <mxPoint x="1169.9999999999998" y="590.0000000000001" as="targetPoint"/>
                        <Array as="points">
                            <mxPoint x="1160" y="470.0000000000001"/>
                        </Array>
                    </mxGeometry>
                </mxCell>
                <mxCell id="172" value="" style="edgeStyle=elbowEdgeStyle;elbow=horizontal;rounded=0;fontColor=#000000;endArrow=none;endFill=0;strokeWidth=8;strokeColor=#23445D;" parent="1" source="156" target="162" edge="1">
                    <mxGeometry width="100" height="100" relative="1" as="geometry">
                        <mxPoint x="1350" y="330.00000000000057" as="sourcePoint"/>
                        <mxPoint x="1359.9999999999995" y="430.0000000000001" as="targetPoint"/>
                        <Array as="points">
                            <mxPoint x="1360" y="380.0000000000001"/>
                        </Array>
                    </mxGeometry>
                </mxCell>
                <mxCell id="173" value="" style="edgeStyle=elbowEdgeStyle;elbow=horizontal;rounded=0;fontColor=#000000;endArrow=none;endFill=0;strokeWidth=8;strokeColor=#23445D;" parent="1" source="156" target="163" edge="1">
                    <mxGeometry width="100" height="100" relative="1" as="geometry">
                        <mxPoint x="1360" y="330.0000000000001" as="sourcePoint"/>
                        <mxPoint x="1359.9999999999998" y="510.0000000000001" as="targetPoint"/>
                        <Array as="points">
                            <mxPoint x="1360" y="420.0000000000001"/>
                        </Array>
                    </mxGeometry>
                </mxCell>
                <mxCell id="174" value="" style="edgeStyle=elbowEdgeStyle;elbow=horizontal;rounded=0;fontColor=#000000;endArrow=none;endFill=0;strokeWidth=8;strokeColor=#23445D;" parent="1" source="156" target="166" edge="1">
                    <mxGeometry width="100" height="100" relative="1" as="geometry">
                        <mxPoint x="1360" y="330.0000000000001" as="sourcePoint"/>
                        <mxPoint x="1360" y="750.0000000000001" as="targetPoint"/>
                        <Array as="points">
                            <mxPoint x="1360" y="540.0000000000001"/>
                        </Array>
                    </mxGeometry>
                </mxCell>
                <mxCell id="175" value="" style="edgeStyle=elbowEdgeStyle;elbow=horizontal;rounded=0;fontColor=#000000;endArrow=none;endFill=0;strokeWidth=8;strokeColor=#23445D;" parent="1" source="156" target="165" edge="1">
                    <mxGeometry width="100" height="100" relative="1" as="geometry">
                        <mxPoint x="1360" y="330.0000000000001" as="sourcePoint"/>
                        <mxPoint x="1360" y="670.0000000000001" as="targetPoint"/>
                        <Array as="points">
                            <mxPoint x="1360" y="500.0000000000001"/>
                        </Array>
                    </mxGeometry>
                </mxCell>
                <mxCell id="176" value="" style="edgeStyle=elbowEdgeStyle;elbow=horizontal;rounded=0;fontColor=#000000;endArrow=none;endFill=0;strokeWidth=8;strokeColor=#23445D;" parent="1" source="156" target="164" edge="1">
                    <mxGeometry width="100" height="100" relative="1" as="geometry">
                        <mxPoint x="1360" y="330.0000000000001" as="sourcePoint"/>
                        <mxPoint x="1359.9999999999998" y="590.0000000000001" as="targetPoint"/>
                        <Array as="points">
                            <mxPoint x="1360" y="470.0000000000001"/>
                        </Array>
                    </mxGeometry>
                </mxCell>
                <mxCell id="177" value="开发IDE" style="whiteSpace=wrap;rounded=1;fillColor=#12AAB5;strokeColor=none;shadow=1;fontColor=#FFFFFF;" parent="1" vertex="1">
                    <mxGeometry x="1549.9999999999998" y="299.9999999999999" width="120" height="60" as="geometry"/>
                </mxCell>
                <mxCell id="178" value="版本控制" style="whiteSpace=wrap;rounded=1;fillColor=#12AAB5;strokeColor=none;shadow=1;fontColor=#FFFFFF;" parent="1" vertex="1">
                    <mxGeometry x="1749.9999999999998" y="299.9999999999999" width="120" height="60" as="geometry"/>
                </mxCell>
                <mxCell id="179" value="IDEA" style="whiteSpace=wrap;rounded=1;fillColor=#999999;strokeColor=none;shadow=1;fontColor=#FFFFFF;fontStyle=0" parent="1" vertex="1">
                    <mxGeometry x="1549.9999999999998" y="399.9999999999999" width="120" height="60" as="geometry"/>
                </mxCell>
                <mxCell id="180" value="Visual Studio" style="whiteSpace=wrap;rounded=1;fillColor=#999999;strokeColor=none;shadow=1;fontColor=#FFFFFF;fontStyle=0" parent="1" vertex="1">
                    <mxGeometry x="1550" y="479.9999999999999" width="120" height="60" as="geometry"/>
                </mxCell>
                <mxCell id="181" value="" style="whiteSpace=wrap;rounded=1;fillColor=#999999;strokeColor=none;shadow=1;fontColor=#FFFFFF;fontStyle=0" parent="1" vertex="1">
                    <mxGeometry x="1549.9999999999998" y="559.9999999999999" width="120" height="60" as="geometry"/>
                </mxCell>
                <mxCell id="182" value="" style="whiteSpace=wrap;rounded=1;fillColor=#999999;strokeColor=none;shadow=1;fontColor=#FFFFFF;fontStyle=0" parent="1" vertex="1">
                    <mxGeometry x="1550" y="639.9999999999999" width="120" height="60" as="geometry"/>
                </mxCell>
                <mxCell id="183" value="" style="whiteSpace=wrap;rounded=1;fillColor=#999999;strokeColor=none;shadow=1;fontColor=#FFFFFF;fontStyle=0" parent="1" vertex="1">
                    <mxGeometry x="1550" y="719.9999999999999" width="120" height="60" as="geometry"/>
                </mxCell>
                <mxCell id="184" value="Git" style="whiteSpace=wrap;rounded=1;fillColor=#999999;strokeColor=none;shadow=1;fontColor=#FFFFFF;fontStyle=0" parent="1" vertex="1">
                    <mxGeometry x="1749.9999999999993" y="399.9999999999999" width="120" height="60" as="geometry"/>
                </mxCell>
                <mxCell id="185" value="SVN" style="whiteSpace=wrap;rounded=1;fillColor=#999999;strokeColor=none;shadow=1;fontColor=#FFFFFF;fontStyle=0" parent="1" vertex="1">
                    <mxGeometry x="1749.9999999999995" y="479.9999999999999" width="120" height="60" as="geometry"/>
                </mxCell>
                <mxCell id="186" value="" style="whiteSpace=wrap;rounded=1;fillColor=#999999;strokeColor=none;shadow=1;fontColor=#FFFFFF;fontStyle=0" parent="1" vertex="1">
                    <mxGeometry x="1749.9999999999995" y="559.9999999999999" width="120" height="60" as="geometry"/>
                </mxCell>
                <mxCell id="187" value="" style="whiteSpace=wrap;rounded=1;fillColor=#999999;strokeColor=none;shadow=1;fontColor=#FFFFFF;fontStyle=0" parent="1" vertex="1">
                    <mxGeometry x="1749.9999999999995" y="639.9999999999999" width="120" height="60" as="geometry"/>
                </mxCell>
                <mxCell id="188" value="" style="whiteSpace=wrap;rounded=1;fillColor=#999999;strokeColor=none;shadow=1;fontColor=#FFFFFF;fontStyle=0" parent="1" vertex="1">
                    <mxGeometry x="1749.9999999999998" y="719.9999999999999" width="120" height="60" as="geometry"/>
                </mxCell>
                <mxCell id="189" value="" style="edgeStyle=elbowEdgeStyle;elbow=horizontal;rounded=0;fontColor=#000000;endArrow=none;endFill=0;strokeWidth=8;strokeColor=#23445D;" parent="1" source="177" target="179" edge="1">
                    <mxGeometry width="100" height="100" relative="1" as="geometry">
                        <mxPoint x="1530" y="330.0000000000002" as="sourcePoint"/>
                        <mxPoint x="1539.9999999999995" y="429.9999999999998" as="targetPoint"/>
                        <Array as="points">
                            <mxPoint x="1530" y="379.9999999999998"/>
                        </Array>
                    </mxGeometry>
                </mxCell>
                <mxCell id="190" value="" style="edgeStyle=elbowEdgeStyle;elbow=horizontal;rounded=0;fontColor=#000000;endArrow=none;endFill=0;strokeWidth=8;strokeColor=#23445D;" parent="1" source="177" target="180" edge="1">
                    <mxGeometry width="100" height="100" relative="1" as="geometry">
                        <mxPoint x="1540" y="329.9999999999998" as="sourcePoint"/>
                        <mxPoint x="1539.9999999999998" y="509.9999999999998" as="targetPoint"/>
                        <Array as="points">
                            <mxPoint x="1530" y="419.9999999999998"/>
                        </Array>
                    </mxGeometry>
                </mxCell>
                <mxCell id="191" value="" style="edgeStyle=elbowEdgeStyle;elbow=horizontal;rounded=0;fontColor=#000000;endArrow=none;endFill=0;strokeWidth=8;strokeColor=#23445D;" parent="1" source="177" target="183" edge="1">
                    <mxGeometry width="100" height="100" relative="1" as="geometry">
                        <mxPoint x="1540" y="329.9999999999998" as="sourcePoint"/>
                        <mxPoint x="1540" y="749.9999999999998" as="targetPoint"/>
                        <Array as="points">
                            <mxPoint x="1530" y="549.9999999999998"/>
                        </Array>
                    </mxGeometry>
                </mxCell>
                <mxCell id="192" value="" style="edgeStyle=elbowEdgeStyle;elbow=horizontal;rounded=0;fontColor=#000000;endArrow=none;endFill=0;strokeWidth=8;strokeColor=#23445D;" parent="1" source="177" target="182" edge="1">
                    <mxGeometry width="100" height="100" relative="1" as="geometry">
                        <mxPoint x="1540" y="329.9999999999998" as="sourcePoint"/>
                        <mxPoint x="1540" y="669.9999999999998" as="targetPoint"/>
                        <Array as="points">
                            <mxPoint x="1530" y="499.9999999999998"/>
                        </Array>
                    </mxGeometry>
                </mxCell>
                <mxCell id="193" value="" style="edgeStyle=elbowEdgeStyle;elbow=horizontal;rounded=0;fontColor=#000000;endArrow=none;endFill=0;strokeWidth=8;strokeColor=#23445D;" parent="1" source="177" target="181" edge="1">
                    <mxGeometry width="100" height="100" relative="1" as="geometry">
                        <mxPoint x="1540" y="329.9999999999998" as="sourcePoint"/>
                        <mxPoint x="1539.9999999999998" y="589.9999999999998" as="targetPoint"/>
                        <Array as="points">
                            <mxPoint x="1530" y="469.9999999999998"/>
                        </Array>
                    </mxGeometry>
                </mxCell>
                <mxCell id="194" value="" style="edgeStyle=elbowEdgeStyle;elbow=horizontal;rounded=0;fontColor=#000000;endArrow=none;endFill=0;strokeWidth=8;strokeColor=#23445D;" parent="1" source="178" target="184" edge="1">
                    <mxGeometry width="100" height="100" relative="1" as="geometry">
                        <mxPoint x="1720" y="330.0000000000002" as="sourcePoint"/>
                        <mxPoint x="1729.9999999999995" y="429.9999999999998" as="targetPoint"/>
                        <Array as="points">
                            <mxPoint x="1730" y="379.9999999999998"/>
                        </Array>
                    </mxGeometry>
                </mxCell>
                <mxCell id="195" value="" style="edgeStyle=elbowEdgeStyle;elbow=horizontal;rounded=0;fontColor=#000000;endArrow=none;endFill=0;strokeWidth=8;strokeColor=#23445D;" parent="1" source="178" target="185" edge="1">
                    <mxGeometry width="100" height="100" relative="1" as="geometry">
                        <mxPoint x="1730" y="329.9999999999998" as="sourcePoint"/>
                        <mxPoint x="1729.9999999999998" y="509.9999999999998" as="targetPoint"/>
                        <Array as="points">
                            <mxPoint x="1730" y="419.9999999999998"/>
                        </Array>
                    </mxGeometry>
                </mxCell>
                <mxCell id="196" value="" style="edgeStyle=elbowEdgeStyle;elbow=horizontal;rounded=0;fontColor=#000000;endArrow=none;endFill=0;strokeWidth=8;strokeColor=#23445D;" parent="1" source="178" target="188" edge="1">
                    <mxGeometry width="100" height="100" relative="1" as="geometry">
                        <mxPoint x="1730" y="329.9999999999998" as="sourcePoint"/>
                        <mxPoint x="1730" y="749.9999999999998" as="targetPoint"/>
                        <Array as="points">
                            <mxPoint x="1730" y="539.9999999999998"/>
                        </Array>
                    </mxGeometry>
                </mxCell>
                <mxCell id="197" value="" style="edgeStyle=elbowEdgeStyle;elbow=horizontal;rounded=0;fontColor=#000000;endArrow=none;endFill=0;strokeWidth=8;strokeColor=#23445D;" parent="1" source="178" target="187" edge="1">
                    <mxGeometry width="100" height="100" relative="1" as="geometry">
                        <mxPoint x="1730" y="329.9999999999998" as="sourcePoint"/>
                        <mxPoint x="1730" y="669.9999999999998" as="targetPoint"/>
                        <Array as="points">
                            <mxPoint x="1730" y="499.9999999999998"/>
                        </Array>
                    </mxGeometry>
                </mxCell>
                <mxCell id="198" value="" style="edgeStyle=elbowEdgeStyle;elbow=horizontal;rounded=0;fontColor=#000000;endArrow=none;endFill=0;strokeWidth=8;strokeColor=#23445D;" parent="1" source="178" target="186" edge="1">
                    <mxGeometry width="100" height="100" relative="1" as="geometry">
                        <mxPoint x="1730" y="329.9999999999998" as="sourcePoint"/>
                        <mxPoint x="1729.9999999999998" y="589.9999999999998" as="targetPoint"/>
                        <Array as="points">
                            <mxPoint x="1730" y="469.9999999999998"/>
                        </Array>
                    </mxGeometry>
                </mxCell>
                <mxCell id="199" value="工业协议" style="whiteSpace=wrap;rounded=1;fillColor=#12AAB5;strokeColor=none;shadow=1;fontColor=#FFFFFF;" parent="1" vertex="1">
                    <mxGeometry x="1919.9999999999998" y="299.9999999999997" width="120" height="60" as="geometry"/>
                </mxCell>
                <mxCell id="200" value="接口开发" style="whiteSpace=wrap;rounded=1;fillColor=#12AAB5;strokeColor=none;shadow=1;fontColor=#FFFFFF;" parent="1" vertex="1">
                    <mxGeometry x="2120" y="299.9999999999997" width="120" height="60" as="geometry"/>
                </mxCell>
                <mxCell id="201" value="SECS/EGM（半导体）" style="whiteSpace=wrap;rounded=1;fillColor=#999999;strokeColor=none;shadow=1;fontColor=#FFFFFF;fontStyle=0" parent="1" vertex="1">
                    <mxGeometry x="1919.9999999999998" y="399.9999999999997" width="120" height="60" as="geometry"/>
                </mxCell>
                <mxCell id="202" value="EAP（半导体）" style="whiteSpace=wrap;rounded=1;fillColor=#999999;strokeColor=none;shadow=1;fontColor=#FFFFFF;fontStyle=0" parent="1" vertex="1">
                    <mxGeometry x="1920" y="479.9999999999997" width="120" height="60" as="geometry"/>
                </mxCell>
                <mxCell id="203" value="OPC UA（航空航天）" style="whiteSpace=wrap;rounded=1;fillColor=#999999;strokeColor=none;shadow=1;fontColor=#FFFFFF;fontStyle=0" parent="1" vertex="1">
                    <mxGeometry x="1919.9999999999998" y="559.9999999999997" width="120" height="60" as="geometry"/>
                </mxCell>
                <mxCell id="204" value="" style="whiteSpace=wrap;rounded=1;fillColor=#999999;strokeColor=none;shadow=1;fontColor=#FFFFFF;fontStyle=0" parent="1" vertex="1">
                    <mxGeometry x="1920" y="639.9999999999997" width="120" height="60" as="geometry"/>
                </mxCell>
                <mxCell id="205" value="" style="whiteSpace=wrap;rounded=1;fillColor=#999999;strokeColor=none;shadow=1;fontColor=#FFFFFF;fontStyle=0" parent="1" vertex="1">
                    <mxGeometry x="1920" y="719.9999999999997" width="120" height="60" as="geometry"/>
                </mxCell>
                <mxCell id="206" value="RESTFUL API" style="whiteSpace=wrap;rounded=1;fillColor=#999999;strokeColor=none;shadow=1;fontColor=#FFFFFF;fontStyle=0" parent="1" vertex="1">
                    <mxGeometry x="2119.999999999999" y="399.9999999999997" width="120" height="60" as="geometry"/>
                </mxCell>
                <mxCell id="207" value="SOAP" style="whiteSpace=wrap;rounded=1;fillColor=#999999;strokeColor=none;shadow=1;fontColor=#FFFFFF;fontStyle=0" parent="1" vertex="1">
                    <mxGeometry x="2119.9999999999995" y="479.9999999999997" width="120" height="60" as="geometry"/>
                </mxCell>
                <mxCell id="208" value="WebService" style="whiteSpace=wrap;rounded=1;fillColor=#999999;strokeColor=none;shadow=1;fontColor=#FFFFFF;fontStyle=0" parent="1" vertex="1">
                    <mxGeometry x="2119.9999999999995" y="559.9999999999997" width="120" height="60" as="geometry"/>
                </mxCell>
                <mxCell id="209" value="" style="whiteSpace=wrap;rounded=1;fillColor=#999999;strokeColor=none;shadow=1;fontColor=#FFFFFF;fontStyle=0" parent="1" vertex="1">
                    <mxGeometry x="2119.9999999999995" y="639.9999999999997" width="120" height="60" as="geometry"/>
                </mxCell>
                <mxCell id="210" value="" style="whiteSpace=wrap;rounded=1;fillColor=#999999;strokeColor=none;shadow=1;fontColor=#FFFFFF;fontStyle=0" parent="1" vertex="1">
                    <mxGeometry x="2120" y="719.9999999999997" width="120" height="60" as="geometry"/>
                </mxCell>
                <mxCell id="211" value="" style="edgeStyle=elbowEdgeStyle;elbow=horizontal;rounded=0;fontColor=#000000;endArrow=none;endFill=0;strokeWidth=8;strokeColor=#23445D;" parent="1" source="199" target="201" edge="1">
                    <mxGeometry width="100" height="100" relative="1" as="geometry">
                        <mxPoint x="1900" y="330.00000000000006" as="sourcePoint"/>
                        <mxPoint x="1909.9999999999995" y="429.9999999999996" as="targetPoint"/>
                        <Array as="points">
                            <mxPoint x="1900" y="379.9999999999996"/>
                        </Array>
                    </mxGeometry>
                </mxCell>
                <mxCell id="212" value="" style="edgeStyle=elbowEdgeStyle;elbow=horizontal;rounded=0;fontColor=#000000;endArrow=none;endFill=0;strokeWidth=8;strokeColor=#23445D;" parent="1" source="199" target="202" edge="1">
                    <mxGeometry width="100" height="100" relative="1" as="geometry">
                        <mxPoint x="1910" y="329.9999999999996" as="sourcePoint"/>
                        <mxPoint x="1909.9999999999998" y="509.9999999999996" as="targetPoint"/>
                        <Array as="points">
                            <mxPoint x="1900" y="419.9999999999996"/>
                        </Array>
                    </mxGeometry>
                </mxCell>
                <mxCell id="213" value="" style="edgeStyle=elbowEdgeStyle;elbow=horizontal;rounded=0;fontColor=#000000;endArrow=none;endFill=0;strokeWidth=8;strokeColor=#23445D;" parent="1" source="199" target="205" edge="1">
                    <mxGeometry width="100" height="100" relative="1" as="geometry">
                        <mxPoint x="1910" y="329.9999999999996" as="sourcePoint"/>
                        <mxPoint x="1910" y="749.9999999999995" as="targetPoint"/>
                        <Array as="points">
                            <mxPoint x="1900" y="549.9999999999995"/>
                        </Array>
                    </mxGeometry>
                </mxCell>
                <mxCell id="214" value="" style="edgeStyle=elbowEdgeStyle;elbow=horizontal;rounded=0;fontColor=#000000;endArrow=none;endFill=0;strokeWidth=8;strokeColor=#23445D;" parent="1" source="199" target="204" edge="1">
                    <mxGeometry width="100" height="100" relative="1" as="geometry">
                        <mxPoint x="1910" y="329.9999999999996" as="sourcePoint"/>
                        <mxPoint x="1910" y="669.9999999999995" as="targetPoint"/>
                        <Array as="points">
                            <mxPoint x="1900" y="499.9999999999996"/>
                        </Array>
                    </mxGeometry>
                </mxCell>
                <mxCell id="215" value="" style="edgeStyle=elbowEdgeStyle;elbow=horizontal;rounded=0;fontColor=#000000;endArrow=none;endFill=0;strokeWidth=8;strokeColor=#23445D;" parent="1" source="199" target="203" edge="1">
                    <mxGeometry width="100" height="100" relative="1" as="geometry">
                        <mxPoint x="1910" y="329.9999999999996" as="sourcePoint"/>
                        <mxPoint x="1909.9999999999998" y="589.9999999999995" as="targetPoint"/>
                        <Array as="points">
                            <mxPoint x="1900" y="469.9999999999996"/>
                        </Array>
                    </mxGeometry>
                </mxCell>
                <mxCell id="216" value="" style="edgeStyle=elbowEdgeStyle;elbow=horizontal;rounded=0;fontColor=#000000;endArrow=none;endFill=0;strokeWidth=8;strokeColor=#23445D;" parent="1" source="200" target="206" edge="1">
                    <mxGeometry width="100" height="100" relative="1" as="geometry">
                        <mxPoint x="2090" y="330.00000000000006" as="sourcePoint"/>
                        <mxPoint x="2099.9999999999995" y="429.9999999999996" as="targetPoint"/>
                        <Array as="points">
                            <mxPoint x="2100" y="379.9999999999996"/>
                        </Array>
                    </mxGeometry>
                </mxCell>
                <mxCell id="217" value="" style="edgeStyle=elbowEdgeStyle;elbow=horizontal;rounded=0;fontColor=#000000;endArrow=none;endFill=0;strokeWidth=8;strokeColor=#23445D;" parent="1" source="200" target="207" edge="1">
                    <mxGeometry width="100" height="100" relative="1" as="geometry">
                        <mxPoint x="2100" y="329.9999999999996" as="sourcePoint"/>
                        <mxPoint x="2100" y="509.9999999999996" as="targetPoint"/>
                        <Array as="points">
                            <mxPoint x="2100" y="419.9999999999996"/>
                        </Array>
                    </mxGeometry>
                </mxCell>
                <mxCell id="218" value="" style="edgeStyle=elbowEdgeStyle;elbow=horizontal;rounded=0;fontColor=#000000;endArrow=none;endFill=0;strokeWidth=8;strokeColor=#23445D;" parent="1" source="200" target="210" edge="1">
                    <mxGeometry width="100" height="100" relative="1" as="geometry">
                        <mxPoint x="2100" y="329.9999999999996" as="sourcePoint"/>
                        <mxPoint x="2100" y="749.9999999999995" as="targetPoint"/>
                        <Array as="points">
                            <mxPoint x="2100" y="539.9999999999995"/>
                        </Array>
                    </mxGeometry>
                </mxCell>
                <mxCell id="219" value="" style="edgeStyle=elbowEdgeStyle;elbow=horizontal;rounded=0;fontColor=#000000;endArrow=none;endFill=0;strokeWidth=8;strokeColor=#23445D;" parent="1" source="200" target="209" edge="1">
                    <mxGeometry width="100" height="100" relative="1" as="geometry">
                        <mxPoint x="2100" y="329.9999999999996" as="sourcePoint"/>
                        <mxPoint x="2100" y="669.9999999999995" as="targetPoint"/>
                        <Array as="points">
                            <mxPoint x="2100" y="499.9999999999996"/>
                        </Array>
                    </mxGeometry>
                </mxCell>
                <mxCell id="220" value="" style="edgeStyle=elbowEdgeStyle;elbow=horizontal;rounded=0;fontColor=#000000;endArrow=none;endFill=0;strokeWidth=8;strokeColor=#23445D;" parent="1" source="200" target="208" edge="1">
                    <mxGeometry width="100" height="100" relative="1" as="geometry">
                        <mxPoint x="2100" y="329.9999999999996" as="sourcePoint"/>
                        <mxPoint x="2100" y="589.9999999999995" as="targetPoint"/>
                        <Array as="points">
                            <mxPoint x="2100" y="469.9999999999996"/>
                        </Array>
                    </mxGeometry>
                </mxCell>
                <mxCell id="221" value="" style="edgeStyle=elbowEdgeStyle;elbow=vertical;rounded=0;fontColor=#000000;endArrow=none;endFill=0;strokeWidth=8;strokeColor=#23445D;" parent="1" source="6" target="133" edge="1">
                    <mxGeometry width="100" height="100" relative="1" as="geometry">
                        <mxPoint x="780" y="270" as="sourcePoint"/>
                        <mxPoint x="880" y="170" as="targetPoint"/>
                    </mxGeometry>
                </mxCell>
                <mxCell id="222" value="" style="edgeStyle=elbowEdgeStyle;elbow=vertical;rounded=0;fontColor=#000000;endArrow=none;endFill=0;strokeWidth=8;strokeColor=#23445D;" parent="1" source="6" target="134" edge="1">
                    <mxGeometry width="100" height="100" relative="1" as="geometry">
                        <mxPoint x="1030" y="280" as="sourcePoint"/>
                        <mxPoint x="1130" y="180" as="targetPoint"/>
                    </mxGeometry>
                </mxCell>
                <mxCell id="223" value="" style="edgeStyle=elbowEdgeStyle;elbow=vertical;rounded=0;fontColor=#000000;endArrow=none;endFill=0;strokeWidth=8;strokeColor=#23445D;" parent="1" source="7" target="155" edge="1">
                    <mxGeometry width="100" height="100" relative="1" as="geometry">
                        <mxPoint x="1340" y="300" as="sourcePoint"/>
                        <mxPoint x="1240" y="190" as="targetPoint"/>
                    </mxGeometry>
                </mxCell>
                <mxCell id="224" value="" style="edgeStyle=elbowEdgeStyle;elbow=vertical;rounded=0;fontColor=#000000;endArrow=none;endFill=0;strokeWidth=8;strokeColor=#23445D;" parent="1" source="7" target="156" edge="1">
                    <mxGeometry width="100" height="100" relative="1" as="geometry">
                        <mxPoint x="1430" y="290" as="sourcePoint"/>
                        <mxPoint x="1530" y="190" as="targetPoint"/>
                    </mxGeometry>
                </mxCell>
                <mxCell id="225" value="" style="edgeStyle=elbowEdgeStyle;elbow=vertical;rounded=0;fontColor=#000000;endArrow=none;endFill=0;strokeWidth=8;strokeColor=#23445D;" parent="1" source="8" target="177" edge="1">
                    <mxGeometry width="100" height="100" relative="1" as="geometry">
                        <mxPoint x="1550" y="290" as="sourcePoint"/>
                        <mxPoint x="1650" y="190" as="targetPoint"/>
                    </mxGeometry>
                </mxCell>
                <mxCell id="226" value="" style="edgeStyle=elbowEdgeStyle;elbow=vertical;rounded=0;fontColor=#000000;endArrow=none;endFill=0;strokeWidth=8;strokeColor=#23445D;" parent="1" source="8" target="178" edge="1">
                    <mxGeometry width="100" height="100" relative="1" as="geometry">
                        <mxPoint x="1780" y="290" as="sourcePoint"/>
                        <mxPoint x="1880" y="190" as="targetPoint"/>
                    </mxGeometry>
                </mxCell>
                <mxCell id="227" value="" style="edgeStyle=elbowEdgeStyle;elbow=vertical;rounded=0;fontColor=#000000;endArrow=none;endFill=0;strokeWidth=8;strokeColor=#23445D;" parent="1" source="5" target="199" edge="1">
                    <mxGeometry width="100" height="100" relative="1" as="geometry">
                        <mxPoint x="1900" y="290" as="sourcePoint"/>
                        <mxPoint x="2000" y="190" as="targetPoint"/>
                    </mxGeometry>
                </mxCell>
                <mxCell id="228" value="" style="edgeStyle=elbowEdgeStyle;elbow=vertical;rounded=0;fontColor=#000000;endArrow=none;endFill=0;strokeWidth=8;strokeColor=#23445D;" parent="1" source="5" target="200" edge="1">
                    <mxGeometry width="100" height="100" relative="1" as="geometry">
                        <mxPoint x="2160" y="290" as="sourcePoint"/>
                        <mxPoint x="2260" y="190" as="targetPoint"/>
                    </mxGeometry>
                </mxCell>
                <mxCell id="229" value="" style="edgeStyle=elbowEdgeStyle;elbow=vertical;rounded=0;fontColor=#000000;endArrow=none;endFill=0;strokeWidth=8;strokeColor=#23445D;" parent="1" source="2" target="3" edge="1">
                    <mxGeometry width="100" height="100" relative="1" as="geometry">
                        <mxPoint x="540" y="140" as="sourcePoint"/>
                        <mxPoint x="640" y="40" as="targetPoint"/>
                    </mxGeometry>
                </mxCell>
                <mxCell id="230" value="" style="edgeStyle=elbowEdgeStyle;elbow=vertical;rounded=0;fontColor=#000000;endArrow=none;endFill=0;strokeWidth=8;strokeColor=#23445D;" parent="1" source="2" target="4" edge="1">
                    <mxGeometry width="100" height="100" relative="1" as="geometry">
                        <mxPoint x="550" y="150" as="sourcePoint"/>
                        <mxPoint x="650" y="50" as="targetPoint"/>
                    </mxGeometry>
                </mxCell>
                <mxCell id="231" value="" style="edgeStyle=elbowEdgeStyle;elbow=vertical;rounded=0;fontColor=#000000;endArrow=none;endFill=0;strokeWidth=8;strokeColor=#23445D;" parent="1" source="2" target="6" edge="1">
                    <mxGeometry width="100" height="100" relative="1" as="geometry">
                        <mxPoint x="560" y="160" as="sourcePoint"/>
                        <mxPoint x="660" y="60" as="targetPoint"/>
                    </mxGeometry>
                </mxCell>
                <mxCell id="232" value="" style="edgeStyle=elbowEdgeStyle;elbow=vertical;rounded=0;fontColor=#000000;endArrow=none;endFill=0;strokeWidth=8;strokeColor=#23445D;" parent="1" source="2" target="7" edge="1">
                    <mxGeometry width="100" height="100" relative="1" as="geometry">
                        <mxPoint x="570" y="170" as="sourcePoint"/>
                        <mxPoint x="670" y="70" as="targetPoint"/>
                    </mxGeometry>
                </mxCell>
                <mxCell id="233" value="" style="edgeStyle=elbowEdgeStyle;elbow=vertical;rounded=0;fontColor=#000000;endArrow=none;endFill=0;strokeWidth=8;strokeColor=#23445D;" parent="1" source="2" target="8" edge="1">
                    <mxGeometry width="100" height="100" relative="1" as="geometry">
                        <mxPoint x="580" y="180" as="sourcePoint"/>
                        <mxPoint x="680" y="80" as="targetPoint"/>
                    </mxGeometry>
                </mxCell>
                <mxCell id="234" value="" style="edgeStyle=elbowEdgeStyle;elbow=vertical;rounded=0;fontColor=#000000;endArrow=none;endFill=0;strokeWidth=8;strokeColor=#23445D;" parent="1" source="2" target="5" edge="1">
                    <mxGeometry width="100" height="100" relative="1" as="geometry">
                        <mxPoint x="590" y="190" as="sourcePoint"/>
                        <mxPoint x="690" y="90" as="targetPoint"/>
                    </mxGeometry>
                </mxCell>
                <mxCell id="yzW_gOZtx-Ej9uauN2ua-235" value="《MES系统的理论与实践》" style="whiteSpace=wrap;rounded=1;fillColor=#999999;strokeColor=none;shadow=1;fontColor=#FFFFFF;fontStyle=0" parent="1" vertex="1">
                    <mxGeometry x="70.00000000000036" y="800.0000000000001" width="120" height="60" as="geometry"/>
                </mxCell>
                <mxCell id="yzW_gOZtx-Ej9uauN2ua-236" value="" style="edgeStyle=elbowEdgeStyle;elbow=horizontal;rounded=0;fontColor=#000000;endArrow=none;endFill=0;strokeWidth=8;strokeColor=#23445D;entryX=0;entryY=0.5;entryDx=0;entryDy=0;" parent="1" source="10" target="yzW_gOZtx-Ej9uauN2ua-235" edge="1">
                    <mxGeometry width="100" height="100" relative="1" as="geometry">
                        <mxPoint x="80" y="340" as="sourcePoint"/>
                        <mxPoint x="80" y="440" as="targetPoint"/>
                        <Array as="points">
                            <mxPoint x="50" y="540"/>
                        </Array>
                    </mxGeometry>
                </mxCell>
                <mxCell id="yzW_gOZtx-Ej9uauN2ua-237" value="高薪" style="rounded=0;whiteSpace=wrap;html=1;fontFamily=Architects Daughter;fontSource=https%3A%2F%2Ffonts.googleapis.com%2Fcss%3Ffamily%3DArchitects%2BDaughter;fillColor=#f8cecc;strokeColor=#b85450;" parent="1" vertex="1">
                    <mxGeometry x="120" y="-200" width="90" height="50" as="geometry"/>
                </mxCell>
                <mxCell id="yzW_gOZtx-Ej9uauN2ua-238" value="稳定" style="rounded=0;whiteSpace=wrap;html=1;fontFamily=Architects Daughter;fontSource=https%3A%2F%2Ffonts.googleapis.com%2Fcss%3Ffamily%3DArchitects%2BDaughter;fillColor=#d5e8d4;strokeColor=#82b366;" parent="1" vertex="1">
                    <mxGeometry x="260" y="-200" width="90" height="50" as="geometry"/>
                </mxCell>
                <mxCell id="yzW_gOZtx-Ej9uauN2ua-239" value="大龄友好" style="rounded=0;whiteSpace=wrap;html=1;fontFamily=Architects Daughter;fontSource=https%3A%2F%2Ffonts.googleapis.com%2Fcss%3Ffamily%3DArchitects%2BDaughter;fillColor=#dae8fc;strokeColor=#6c8ebf;" parent="1" vertex="1">
                    <mxGeometry x="180" y="-290" width="90" height="50" as="geometry"/>
                </mxCell>
                <mxCell id="yzW_gOZtx-Ej9uauN2ua-240" value="" style="endArrow=none;html=1;rounded=0;fontFamily=Architects Daughter;fontSource=https%3A%2F%2Ffonts.googleapis.com%2Fcss%3Ffamily%3DArchitects%2BDaughter;fontSize=16;startSize=14;endSize=14;sourcePerimeterSpacing=8;targetPerimeterSpacing=8;curved=1;entryX=0.75;entryY=1;entryDx=0;entryDy=0;" parent="1" target="yzW_gOZtx-Ej9uauN2ua-239" edge="1">
                    <mxGeometry width="50" height="50" relative="1" as="geometry">
                        <mxPoint x="290" y="-200" as="sourcePoint"/>
                        <mxPoint x="340" y="-250" as="targetPoint"/>
                    </mxGeometry>
                </mxCell>
                <mxCell id="yzW_gOZtx-Ej9uauN2ua-241" value="" style="endArrow=none;html=1;rounded=0;fontFamily=Architects Daughter;fontSource=https%3A%2F%2Ffonts.googleapis.com%2Fcss%3Ffamily%3DArchitects%2BDaughter;fontSize=16;startSize=14;endSize=14;sourcePerimeterSpacing=8;targetPerimeterSpacing=8;curved=1;entryX=0.25;entryY=1;entryDx=0;entryDy=0;exitX=0.5;exitY=0;exitDx=0;exitDy=0;" parent="1" source="yzW_gOZtx-Ej9uauN2ua-237" target="yzW_gOZtx-Ej9uauN2ua-239" edge="1">
                    <mxGeometry width="50" height="50" relative="1" as="geometry">
                        <mxPoint x="300" y="-190" as="sourcePoint"/>
                        <mxPoint x="263" y="-230" as="targetPoint"/>
                    </mxGeometry>
                </mxCell>
                <mxCell id="yzW_gOZtx-Ej9uauN2ua-242" value="" style="endArrow=none;html=1;rounded=0;fontFamily=Architects Daughter;fontSource=https%3A%2F%2Ffonts.googleapis.com%2Fcss%3Ffamily%3DArchitects%2BDaughter;fontSize=16;startSize=14;endSize=14;sourcePerimeterSpacing=8;targetPerimeterSpacing=8;curved=1;exitX=1;exitY=0.5;exitDx=0;exitDy=0;entryX=0;entryY=0.5;entryDx=0;entryDy=0;" parent="1" source="yzW_gOZtx-Ej9uauN2ua-237" target="yzW_gOZtx-Ej9uauN2ua-238" edge="1">
                    <mxGeometry width="50" height="50" relative="1" as="geometry">
                        <mxPoint x="175" y="-190" as="sourcePoint"/>
                        <mxPoint x="218" y="-230" as="targetPoint"/>
                    </mxGeometry>
                </mxCell>
                <mxCell id="yzW_gOZtx-Ej9uauN2ua-245" value="终极结论：西安35+人员发展策略&#xa;首选：MES开发工程师&#xa;满足全部核心需求（高薪/稳定/年龄包容），政策支撑最强。&#xa;次选： MES实施工程师（高端领域）&#xa;薪资潜力等同开发岗，但需承担业务压力与差旅成本。&#xa;慎选：上位机开发（航天特需）、物联网开发（转型成本高）、数据采集（薪资天花板低）。" style="text;whiteSpace=wrap;fontFamily=Architects Daughter;fontSource=https%3A%2F%2Ffonts.googleapis.com%2Fcss%3Ffamily%3DArchitects%2BDaughter;fillColor=#ffe6cc;strokeColor=#d79b00;rounded=0;" parent="1" vertex="1">
                    <mxGeometry x="410" y="-260" width="530" height="110" as="geometry"/>
                </mxCell>
                <mxCell id="yzW_gOZtx-Ej9uauN2ua-247" value="《MES系统设计与开发实战》" style="whiteSpace=wrap;rounded=1;fillColor=#999999;strokeColor=none;shadow=1;fontColor=#FFFFFF;fontStyle=0" parent="1" vertex="1">
                    <mxGeometry x="70.00000000000036" y="880.0000000000001" width="120" height="60" as="geometry"/>
                </mxCell>
                <mxCell id="yzW_gOZtx-Ej9uauN2ua-250" value="" style="edgeStyle=elbowEdgeStyle;elbow=horizontal;rounded=0;fontColor=#000000;endArrow=none;endFill=0;strokeWidth=8;strokeColor=#23445D;entryX=0;entryY=0.5;entryDx=0;entryDy=0;" parent="1" edge="1">
                    <mxGeometry width="100" height="100" relative="1" as="geometry">
                        <mxPoint x="70" y="413" as="sourcePoint"/>
                        <mxPoint x="70" y="913" as="targetPoint"/>
                        <Array as="points">
                            <mxPoint x="50" y="623"/>
                        </Array>
                    </mxGeometry>
                </mxCell>
                <mxCell id="yzW_gOZtx-Ej9uauN2ua-251" value="《精益生产与MES系统集成》" style="whiteSpace=wrap;rounded=1;fillColor=#999999;strokeColor=none;shadow=1;fontColor=#FFFFFF;fontStyle=0" parent="1" vertex="1">
                    <mxGeometry x="70.00000000000036" y="960.0000000000001" width="120" height="60" as="geometry"/>
                </mxCell>
                <mxCell id="yzW_gOZtx-Ej9uauN2ua-252" value="《MES系统项目管理与实施》" style="whiteSpace=wrap;rounded=1;fillColor=#999999;strokeColor=none;shadow=1;fontColor=#FFFFFF;fontStyle=0" parent="1" vertex="1">
                    <mxGeometry x="70.00000000000036" y="1040" width="120" height="60" as="geometry"/>
                </mxCell>
                <mxCell id="yzW_gOZtx-Ej9uauN2ua-253" value="" style="edgeStyle=elbowEdgeStyle;elbow=horizontal;rounded=0;fontColor=#000000;endArrow=none;endFill=0;strokeWidth=8;strokeColor=#23445D;entryX=0;entryY=0.5;entryDx=0;entryDy=0;" parent="1" edge="1">
                    <mxGeometry width="100" height="100" relative="1" as="geometry">
                        <mxPoint x="70" y="490" as="sourcePoint"/>
                        <mxPoint x="70" y="990" as="targetPoint"/>
                        <Array as="points">
                            <mxPoint x="50" y="700"/>
                        </Array>
                    </mxGeometry>
                </mxCell>
                <mxCell id="yzW_gOZtx-Ej9uauN2ua-254" value="" style="edgeStyle=elbowEdgeStyle;elbow=horizontal;rounded=0;fontColor=#000000;endArrow=none;endFill=0;strokeWidth=8;strokeColor=#23445D;entryX=0;entryY=0.5;entryDx=0;entryDy=0;" parent="1" edge="1">
                    <mxGeometry width="100" height="100" relative="1" as="geometry">
                        <mxPoint x="70" y="570" as="sourcePoint"/>
                        <mxPoint x="70" y="1070" as="targetPoint"/>
                        <Array as="points">
                            <mxPoint x="50" y="780"/>
                        </Array>
                    </mxGeometry>
                </mxCell>
                <mxCell id="yzW_gOZtx-Ej9uauN2ua-255" value="工业自动化" style="whiteSpace=wrap;rounded=1;fillColor=#F2931E;strokeColor=none;shadow=1;fontColor=#FFFFFF;fontStyle=1;fontSize=14" parent="1" vertex="1">
                    <mxGeometry x="2380" y="169.9999999999998" width="140" height="60" as="geometry"/>
                </mxCell>
                <mxCell id="yzW_gOZtx-Ej9uauN2ua-256" value="设备层对接" style="whiteSpace=wrap;rounded=1;fillColor=#12AAB5;strokeColor=none;shadow=1;fontColor=#FFFFFF;" parent="1" vertex="1">
                    <mxGeometry x="2290" y="299.9999999999997" width="120" height="60" as="geometry"/>
                </mxCell>
                <mxCell id="yzW_gOZtx-Ej9uauN2ua-257" value="物联网技术" style="whiteSpace=wrap;rounded=1;fillColor=#12AAB5;strokeColor=none;shadow=1;fontColor=#FFFFFF;" parent="1" vertex="1">
                    <mxGeometry x="2490" y="299.9999999999997" width="120" height="60" as="geometry"/>
                </mxCell>
                <mxCell id="yzW_gOZtx-Ej9uauN2ua-258" value="PLC编程逻辑" style="whiteSpace=wrap;rounded=1;fillColor=#999999;strokeColor=none;shadow=1;fontColor=#FFFFFF;fontStyle=0" parent="1" vertex="1">
                    <mxGeometry x="2290" y="399.9999999999997" width="120" height="60" as="geometry"/>
                </mxCell>
                <mxCell id="yzW_gOZtx-Ej9uauN2ua-259" value="SCADA架构" style="whiteSpace=wrap;rounded=1;fillColor=#999999;strokeColor=none;shadow=1;fontColor=#FFFFFF;fontStyle=0" parent="1" vertex="1">
                    <mxGeometry x="2290" y="479.9999999999997" width="120" height="60" as="geometry"/>
                </mxCell>
                <mxCell id="yzW_gOZtx-Ej9uauN2ua-260" value="MES与设备数据交互" style="whiteSpace=wrap;rounded=1;fillColor=#999999;strokeColor=none;shadow=1;fontColor=#FFFFFF;fontStyle=0" parent="1" vertex="1">
                    <mxGeometry x="2290" y="559.9999999999997" width="120" height="60" as="geometry"/>
                </mxCell>
                <mxCell id="yzW_gOZtx-Ej9uauN2ua-261" value="" style="whiteSpace=wrap;rounded=1;fillColor=#999999;strokeColor=none;shadow=1;fontColor=#FFFFFF;fontStyle=0" parent="1" vertex="1">
                    <mxGeometry x="2290" y="639.9999999999997" width="120" height="60" as="geometry"/>
                </mxCell>
                <mxCell id="yzW_gOZtx-Ej9uauN2ua-262" value="" style="whiteSpace=wrap;rounded=1;fillColor=#999999;strokeColor=none;shadow=1;fontColor=#FFFFFF;fontStyle=0" parent="1" vertex="1">
                    <mxGeometry x="2290" y="719.9999999999997" width="120" height="60" as="geometry"/>
                </mxCell>
                <mxCell id="yzW_gOZtx-Ej9uauN2ua-263" value="传感器网络" style="whiteSpace=wrap;rounded=1;fillColor=#999999;strokeColor=none;shadow=1;fontColor=#FFFFFF;fontStyle=0" parent="1" vertex="1">
                    <mxGeometry x="2489.999999999999" y="399.9999999999997" width="120" height="60" as="geometry"/>
                </mxCell>
                <mxCell id="yzW_gOZtx-Ej9uauN2ua-264" value="边缘计算" style="whiteSpace=wrap;rounded=1;fillColor=#999999;strokeColor=none;shadow=1;fontColor=#FFFFFF;fontStyle=0" parent="1" vertex="1">
                    <mxGeometry x="2489.9999999999995" y="479.9999999999997" width="120" height="60" as="geometry"/>
                </mxCell>
                <mxCell id="yzW_gOZtx-Ej9uauN2ua-265" value="" style="whiteSpace=wrap;rounded=1;fillColor=#999999;strokeColor=none;shadow=1;fontColor=#FFFFFF;fontStyle=0" parent="1" vertex="1">
                    <mxGeometry x="2489.9999999999995" y="559.9999999999997" width="120" height="60" as="geometry"/>
                </mxCell>
                <mxCell id="yzW_gOZtx-Ej9uauN2ua-266" value="" style="whiteSpace=wrap;rounded=1;fillColor=#999999;strokeColor=none;shadow=1;fontColor=#FFFFFF;fontStyle=0" parent="1" vertex="1">
                    <mxGeometry x="2489.9999999999995" y="639.9999999999997" width="120" height="60" as="geometry"/>
                </mxCell>
                <mxCell id="yzW_gOZtx-Ej9uauN2ua-267" value="" style="whiteSpace=wrap;rounded=1;fillColor=#999999;strokeColor=none;shadow=1;fontColor=#FFFFFF;fontStyle=0" parent="1" vertex="1">
                    <mxGeometry x="2490" y="719.9999999999997" width="120" height="60" as="geometry"/>
                </mxCell>
                <mxCell id="yzW_gOZtx-Ej9uauN2ua-268" value="" style="edgeStyle=elbowEdgeStyle;elbow=horizontal;rounded=0;fontColor=#000000;endArrow=none;endFill=0;strokeWidth=8;strokeColor=#23445D;" parent="1" source="yzW_gOZtx-Ej9uauN2ua-256" target="yzW_gOZtx-Ej9uauN2ua-258" edge="1">
                    <mxGeometry width="100" height="100" relative="1" as="geometry">
                        <mxPoint x="2270" y="330.00000000000006" as="sourcePoint"/>
                        <mxPoint x="2279.9999999999995" y="429.9999999999996" as="targetPoint"/>
                        <Array as="points">
                            <mxPoint x="2270" y="379.9999999999996"/>
                        </Array>
                    </mxGeometry>
                </mxCell>
                <mxCell id="yzW_gOZtx-Ej9uauN2ua-269" value="" style="edgeStyle=elbowEdgeStyle;elbow=horizontal;rounded=0;fontColor=#000000;endArrow=none;endFill=0;strokeWidth=8;strokeColor=#23445D;" parent="1" source="yzW_gOZtx-Ej9uauN2ua-256" target="yzW_gOZtx-Ej9uauN2ua-259" edge="1">
                    <mxGeometry width="100" height="100" relative="1" as="geometry">
                        <mxPoint x="2280" y="329.9999999999996" as="sourcePoint"/>
                        <mxPoint x="2280" y="509.9999999999996" as="targetPoint"/>
                        <Array as="points">
                            <mxPoint x="2270" y="419.9999999999996"/>
                        </Array>
                    </mxGeometry>
                </mxCell>
                <mxCell id="yzW_gOZtx-Ej9uauN2ua-270" value="" style="edgeStyle=elbowEdgeStyle;elbow=horizontal;rounded=0;fontColor=#000000;endArrow=none;endFill=0;strokeWidth=8;strokeColor=#23445D;" parent="1" source="yzW_gOZtx-Ej9uauN2ua-256" target="yzW_gOZtx-Ej9uauN2ua-262" edge="1">
                    <mxGeometry width="100" height="100" relative="1" as="geometry">
                        <mxPoint x="2280" y="329.9999999999996" as="sourcePoint"/>
                        <mxPoint x="2280" y="749.9999999999995" as="targetPoint"/>
                        <Array as="points">
                            <mxPoint x="2270" y="549.9999999999995"/>
                        </Array>
                    </mxGeometry>
                </mxCell>
                <mxCell id="yzW_gOZtx-Ej9uauN2ua-271" value="" style="edgeStyle=elbowEdgeStyle;elbow=horizontal;rounded=0;fontColor=#000000;endArrow=none;endFill=0;strokeWidth=8;strokeColor=#23445D;" parent="1" source="yzW_gOZtx-Ej9uauN2ua-256" target="yzW_gOZtx-Ej9uauN2ua-261" edge="1">
                    <mxGeometry width="100" height="100" relative="1" as="geometry">
                        <mxPoint x="2280" y="329.9999999999996" as="sourcePoint"/>
                        <mxPoint x="2280" y="669.9999999999995" as="targetPoint"/>
                        <Array as="points">
                            <mxPoint x="2270" y="499.9999999999996"/>
                        </Array>
                    </mxGeometry>
                </mxCell>
                <mxCell id="yzW_gOZtx-Ej9uauN2ua-272" value="" style="edgeStyle=elbowEdgeStyle;elbow=horizontal;rounded=0;fontColor=#000000;endArrow=none;endFill=0;strokeWidth=8;strokeColor=#23445D;" parent="1" source="yzW_gOZtx-Ej9uauN2ua-256" target="yzW_gOZtx-Ej9uauN2ua-260" edge="1">
                    <mxGeometry width="100" height="100" relative="1" as="geometry">
                        <mxPoint x="2280" y="329.9999999999996" as="sourcePoint"/>
                        <mxPoint x="2280" y="589.9999999999995" as="targetPoint"/>
                        <Array as="points">
                            <mxPoint x="2270" y="469.9999999999996"/>
                        </Array>
                    </mxGeometry>
                </mxCell>
                <mxCell id="yzW_gOZtx-Ej9uauN2ua-273" value="" style="edgeStyle=elbowEdgeStyle;elbow=horizontal;rounded=0;fontColor=#000000;endArrow=none;endFill=0;strokeWidth=8;strokeColor=#23445D;" parent="1" source="yzW_gOZtx-Ej9uauN2ua-257" target="yzW_gOZtx-Ej9uauN2ua-263" edge="1">
                    <mxGeometry width="100" height="100" relative="1" as="geometry">
                        <mxPoint x="2460" y="330.00000000000006" as="sourcePoint"/>
                        <mxPoint x="2469.9999999999995" y="429.9999999999996" as="targetPoint"/>
                        <Array as="points">
                            <mxPoint x="2470" y="379.9999999999996"/>
                        </Array>
                    </mxGeometry>
                </mxCell>
                <mxCell id="yzW_gOZtx-Ej9uauN2ua-274" value="" style="edgeStyle=elbowEdgeStyle;elbow=horizontal;rounded=0;fontColor=#000000;endArrow=none;endFill=0;strokeWidth=8;strokeColor=#23445D;" parent="1" source="yzW_gOZtx-Ej9uauN2ua-257" target="yzW_gOZtx-Ej9uauN2ua-264" edge="1">
                    <mxGeometry width="100" height="100" relative="1" as="geometry">
                        <mxPoint x="2470" y="329.9999999999996" as="sourcePoint"/>
                        <mxPoint x="2470" y="509.9999999999996" as="targetPoint"/>
                        <Array as="points">
                            <mxPoint x="2470" y="419.9999999999996"/>
                        </Array>
                    </mxGeometry>
                </mxCell>
                <mxCell id="yzW_gOZtx-Ej9uauN2ua-275" value="" style="edgeStyle=elbowEdgeStyle;elbow=horizontal;rounded=0;fontColor=#000000;endArrow=none;endFill=0;strokeWidth=8;strokeColor=#23445D;" parent="1" source="yzW_gOZtx-Ej9uauN2ua-257" target="yzW_gOZtx-Ej9uauN2ua-267" edge="1">
                    <mxGeometry width="100" height="100" relative="1" as="geometry">
                        <mxPoint x="2470" y="329.9999999999996" as="sourcePoint"/>
                        <mxPoint x="2470" y="749.9999999999995" as="targetPoint"/>
                        <Array as="points">
                            <mxPoint x="2470" y="539.9999999999995"/>
                        </Array>
                    </mxGeometry>
                </mxCell>
                <mxCell id="yzW_gOZtx-Ej9uauN2ua-276" value="" style="edgeStyle=elbowEdgeStyle;elbow=horizontal;rounded=0;fontColor=#000000;endArrow=none;endFill=0;strokeWidth=8;strokeColor=#23445D;" parent="1" source="yzW_gOZtx-Ej9uauN2ua-257" target="yzW_gOZtx-Ej9uauN2ua-266" edge="1">
                    <mxGeometry width="100" height="100" relative="1" as="geometry">
                        <mxPoint x="2470" y="329.9999999999996" as="sourcePoint"/>
                        <mxPoint x="2470" y="669.9999999999995" as="targetPoint"/>
                        <Array as="points">
                            <mxPoint x="2470" y="499.9999999999996"/>
                        </Array>
                    </mxGeometry>
                </mxCell>
                <mxCell id="yzW_gOZtx-Ej9uauN2ua-277" value="" style="edgeStyle=elbowEdgeStyle;elbow=horizontal;rounded=0;fontColor=#000000;endArrow=none;endFill=0;strokeWidth=8;strokeColor=#23445D;" parent="1" source="yzW_gOZtx-Ej9uauN2ua-257" target="yzW_gOZtx-Ej9uauN2ua-265" edge="1">
                    <mxGeometry width="100" height="100" relative="1" as="geometry">
                        <mxPoint x="2470" y="329.9999999999996" as="sourcePoint"/>
                        <mxPoint x="2470" y="589.9999999999995" as="targetPoint"/>
                        <Array as="points">
                            <mxPoint x="2470" y="469.9999999999996"/>
                        </Array>
                    </mxGeometry>
                </mxCell>
                <mxCell id="yzW_gOZtx-Ej9uauN2ua-278" value="" style="edgeStyle=elbowEdgeStyle;elbow=vertical;rounded=0;fontColor=#000000;endArrow=none;endFill=0;strokeWidth=8;strokeColor=#23445D;" parent="1" source="yzW_gOZtx-Ej9uauN2ua-255" target="yzW_gOZtx-Ej9uauN2ua-256" edge="1">
                    <mxGeometry width="100" height="100" relative="1" as="geometry">
                        <mxPoint x="2270" y="290" as="sourcePoint"/>
                        <mxPoint x="2370" y="190" as="targetPoint"/>
                    </mxGeometry>
                </mxCell>
                <mxCell id="yzW_gOZtx-Ej9uauN2ua-279" value="" style="edgeStyle=elbowEdgeStyle;elbow=vertical;rounded=0;fontColor=#000000;endArrow=none;endFill=0;strokeWidth=8;strokeColor=#23445D;" parent="1" source="yzW_gOZtx-Ej9uauN2ua-255" target="yzW_gOZtx-Ej9uauN2ua-257" edge="1">
                    <mxGeometry width="100" height="100" relative="1" as="geometry">
                        <mxPoint x="2530" y="290" as="sourcePoint"/>
                        <mxPoint x="2630" y="190" as="targetPoint"/>
                    </mxGeometry>
                </mxCell>
                <mxCell id="yzW_gOZtx-Ej9uauN2ua-280" value="" style="edgeStyle=elbowEdgeStyle;elbow=vertical;rounded=0;fontColor=#000000;endArrow=none;endFill=0;strokeWidth=8;strokeColor=#23445D;exitX=0.5;exitY=1;exitDx=0;exitDy=0;" parent="1" source="2" edge="1">
                    <mxGeometry width="100" height="100" relative="1" as="geometry">
                        <mxPoint x="1540" y="110" as="sourcePoint"/>
                        <mxPoint x="2450" y="170" as="targetPoint"/>
                    </mxGeometry>
                </mxCell>
                <mxCell id="yzW_gOZtx-Ej9uauN2ua-854" value="触发器" style="whiteSpace=wrap;rounded=1;fillColor=#999999;strokeColor=none;shadow=1;fontColor=#FFFFFF;fontStyle=0" parent="1" vertex="1">
                    <mxGeometry x="1180" y="800.0000000000002" width="120" height="60" as="geometry"/>
                </mxCell>
                <mxCell id="yzW_gOZtx-Ej9uauN2ua-857" value="" style="edgeStyle=elbowEdgeStyle;elbow=horizontal;rounded=0;fontColor=#000000;endArrow=none;endFill=0;strokeWidth=8;strokeColor=#23445D;exitX=0;exitY=0.5;exitDx=0;exitDy=0;" parent="1" source="155" edge="1">
                    <mxGeometry width="100" height="100" relative="1" as="geometry">
                        <mxPoint x="1180" y="413" as="sourcePoint"/>
                        <mxPoint x="1180" y="833" as="targetPoint"/>
                        <Array as="points">
                            <mxPoint x="1160" y="633.0000000000001"/>
                        </Array>
                    </mxGeometry>
                </mxCell>
                <mxCell id="yzW_gOZtx-Ej9uauN2ua-873" value="" style="edgeStyle=none;curved=1;rounded=0;orthogonalLoop=1;jettySize=auto;html=1;fontFamily=Architects Daughter;fontSource=https%3A%2F%2Ffonts.googleapis.com%2Fcss%3Ffamily%3DArchitects%2BDaughter;fontSize=16;startSize=14;endArrow=open;endSize=14;sourcePerimeterSpacing=8;targetPerimeterSpacing=8;" parent="1" source="yzW_gOZtx-Ej9uauN2ua-871" target="yzW_gOZtx-Ej9uauN2ua-872" edge="1">
                    <mxGeometry relative="1" as="geometry"/>
                </mxCell>
                <mxCell id="yzW_gOZtx-Ej9uauN2ua-880" style="edgeStyle=orthogonalEdgeStyle;rounded=0;orthogonalLoop=1;jettySize=auto;html=1;exitX=0.5;exitY=1;exitDx=0;exitDy=0;entryX=0;entryY=0.5;entryDx=0;entryDy=0;fontFamily=Architects Daughter;fontSource=https%3A%2F%2Ffonts.googleapis.com%2Fcss%3Ffamily%3DArchitects%2BDaughter;fontSize=16;startSize=14;endArrow=open;endSize=14;sourcePerimeterSpacing=8;targetPerimeterSpacing=8;" parent="1" source="yzW_gOZtx-Ej9uauN2ua-871" target="yzW_gOZtx-Ej9uauN2ua-876" edge="1">
                    <mxGeometry relative="1" as="geometry"/>
                </mxCell>
                <mxCell id="yzW_gOZtx-Ej9uauN2ua-871" value="传感器" style="rounded=1;whiteSpace=wrap;html=1;fontFamily=Architects Daughter;fontSource=https%3A%2F%2Ffonts.googleapis.com%2Fcss%3Ffamily%3DArchitects%2BDaughter;" parent="1" vertex="1">
                    <mxGeometry x="1350" y="-500" width="120" height="60" as="geometry"/>
                </mxCell>
                <mxCell id="yzW_gOZtx-Ej9uauN2ua-875" value="" style="edgeStyle=none;curved=1;rounded=0;orthogonalLoop=1;jettySize=auto;html=1;fontFamily=Architects Daughter;fontSource=https%3A%2F%2Ffonts.googleapis.com%2Fcss%3Ffamily%3DArchitects%2BDaughter;fontSize=16;startSize=14;endArrow=open;endSize=14;sourcePerimeterSpacing=8;targetPerimeterSpacing=8;" parent="1" source="yzW_gOZtx-Ej9uauN2ua-872" target="yzW_gOZtx-Ej9uauN2ua-874" edge="1">
                    <mxGeometry relative="1" as="geometry"/>
                </mxCell>
                <mxCell id="yzW_gOZtx-Ej9uauN2ua-877" value="" style="edgeStyle=none;curved=1;rounded=0;orthogonalLoop=1;jettySize=auto;html=1;fontFamily=Architects Daughter;fontSource=https%3A%2F%2Ffonts.googleapis.com%2Fcss%3Ffamily%3DArchitects%2BDaughter;fontSize=16;startSize=14;endArrow=open;endSize=14;sourcePerimeterSpacing=8;targetPerimeterSpacing=8;" parent="1" source="yzW_gOZtx-Ej9uauN2ua-872" target="yzW_gOZtx-Ej9uauN2ua-876" edge="1">
                    <mxGeometry relative="1" as="geometry"/>
                </mxCell>
                <mxCell id="yzW_gOZtx-Ej9uauN2ua-872" value="PLC" style="rounded=1;whiteSpace=wrap;html=1;fontFamily=Architects Daughter;fontSource=https%3A%2F%2Ffonts.googleapis.com%2Fcss%3Ffamily%3DArchitects%2BDaughter;" parent="1" vertex="1">
                    <mxGeometry x="1590" y="-500" width="120" height="60" as="geometry"/>
                </mxCell>
                <mxCell id="C5JoF0SjJhYjnjkmCWUG-235" style="edgeStyle=none;curved=1;rounded=0;orthogonalLoop=1;jettySize=auto;html=1;fontFamily=Architects Daughter;fontSource=https%3A%2F%2Ffonts.googleapis.com%2Fcss%3Ffamily%3DArchitects%2BDaughter;fontSize=16;startSize=14;endArrow=open;endSize=14;sourcePerimeterSpacing=8;targetPerimeterSpacing=8;" parent="1" source="yzW_gOZtx-Ej9uauN2ua-874" edge="1">
                    <mxGeometry relative="1" as="geometry">
                        <mxPoint x="1890" y="-330" as="targetPoint"/>
                    </mxGeometry>
                </mxCell>
                <mxCell id="yzW_gOZtx-Ej9uauN2ua-874" value="上位机" style="rounded=1;whiteSpace=wrap;html=1;fontFamily=Architects Daughter;fontSource=https%3A%2F%2Ffonts.googleapis.com%2Fcss%3Ffamily%3DArchitects%2BDaughter;" parent="1" vertex="1">
                    <mxGeometry x="1830" y="-500" width="120" height="60" as="geometry"/>
                </mxCell>
                <mxCell id="yzW_gOZtx-Ej9uauN2ua-879" value="" style="edgeStyle=none;curved=1;rounded=0;orthogonalLoop=1;jettySize=auto;html=1;fontFamily=Architects Daughter;fontSource=https%3A%2F%2Ffonts.googleapis.com%2Fcss%3Ffamily%3DArchitects%2BDaughter;fontSize=16;startSize=14;endArrow=open;endSize=14;sourcePerimeterSpacing=8;targetPerimeterSpacing=8;" parent="1" source="yzW_gOZtx-Ej9uauN2ua-876" target="yzW_gOZtx-Ej9uauN2ua-878" edge="1">
                    <mxGeometry relative="1" as="geometry"/>
                </mxCell>
                <mxCell id="yzW_gOZtx-Ej9uauN2ua-882" value="" style="edgeStyle=none;curved=1;rounded=0;orthogonalLoop=1;jettySize=auto;html=1;fontFamily=Architects Daughter;fontSource=https%3A%2F%2Ffonts.googleapis.com%2Fcss%3Ffamily%3DArchitects%2BDaughter;fontSize=16;startSize=14;endArrow=open;endSize=14;sourcePerimeterSpacing=8;targetPerimeterSpacing=8;" parent="1" source="yzW_gOZtx-Ej9uauN2ua-876" target="yzW_gOZtx-Ej9uauN2ua-881" edge="1">
                    <mxGeometry relative="1" as="geometry"/>
                </mxCell>
                <mxCell id="yzW_gOZtx-Ej9uauN2ua-876" value="物联网网关" style="rounded=1;whiteSpace=wrap;html=1;fontFamily=Architects Daughter;fontSource=https%3A%2F%2Ffonts.googleapis.com%2Fcss%3Ffamily%3DArchitects%2BDaughter;" parent="1" vertex="1">
                    <mxGeometry x="1590" y="-320" width="120" height="60" as="geometry"/>
                </mxCell>
                <mxCell id="yzW_gOZtx-Ej9uauN2ua-878" value="物联网平台" style="rounded=1;whiteSpace=wrap;html=1;fontFamily=Architects Daughter;fontSource=https%3A%2F%2Ffonts.googleapis.com%2Fcss%3Ffamily%3DArchitects%2BDaughter;" parent="1" vertex="1">
                    <mxGeometry x="1830" y="-320" width="120" height="60" as="geometry"/>
                </mxCell>
                <mxCell id="yzW_gOZtx-Ej9uauN2ua-881" value="MES系统" style="rounded=1;whiteSpace=wrap;html=1;fontFamily=Architects Daughter;fontSource=https%3A%2F%2Ffonts.googleapis.com%2Fcss%3Ffamily%3DArchitects%2BDaughter;" parent="1" vertex="1">
                    <mxGeometry x="1590" y="-140" width="120" height="60" as="geometry"/>
                </mxCell>
                <mxCell id="yzW_gOZtx-Ej9uauN2ua-886" value="Thinsboard&lt;div&gt;nodered&lt;/div&gt;" style="ellipse;shape=cloud;whiteSpace=wrap;html=1;fontFamily=Architects Daughter;fontSource=https%3A%2F%2Ffonts.googleapis.com%2Fcss%3Ffamily%3DArchitects%2BDaughter;" parent="1" vertex="1">
                    <mxGeometry x="1900" y="-370" width="120" height="80" as="geometry"/>
                </mxCell>
                <mxCell id="yzW_gOZtx-Ej9uauN2ua-887" value="IoTGateway&lt;div&gt;KepServer&lt;/div&gt;" style="ellipse;shape=cloud;whiteSpace=wrap;html=1;fontFamily=Architects Daughter;fontSource=https%3A%2F%2Ffonts.googleapis.com%2Fcss%3Ffamily%3DArchitects%2BDaughter;" parent="1" vertex="1">
                    <mxGeometry x="1660" y="-370" width="120" height="80" as="geometry"/>
                </mxCell>
                <mxCell id="C5JoF0SjJhYjnjkmCWUG-239" value="" style="edgeStyle=none;curved=1;rounded=0;orthogonalLoop=1;jettySize=auto;html=1;fontFamily=Architects Daughter;fontSource=https%3A%2F%2Ffonts.googleapis.com%2Fcss%3Ffamily%3DArchitects%2BDaughter;fontSize=16;startSize=14;endArrow=open;endSize=14;sourcePerimeterSpacing=8;targetPerimeterSpacing=8;" parent="1" source="C5JoF0SjJhYjnjkmCWUG-237" target="C5JoF0SjJhYjnjkmCWUG-238" edge="1">
                    <mxGeometry relative="1" as="geometry"/>
                </mxCell>
                <mxCell id="C5JoF0SjJhYjnjkmCWUG-240" value="I/O点" style="edgeLabel;html=1;align=center;verticalAlign=middle;resizable=0;points=[];fontSize=16;fontFamily=Architects Daughter;fontSource=https%3A%2F%2Ffonts.googleapis.com%2Fcss%3Ffamily%3DArchitects%2BDaughter;" parent="C5JoF0SjJhYjnjkmCWUG-239" vertex="1" connectable="0">
                    <mxGeometry x="-0.4066" relative="1" as="geometry">
                        <mxPoint x="-1" as="offset"/>
                    </mxGeometry>
                </mxCell>
                <mxCell id="C5JoF0SjJhYjnjkmCWUG-237" value="传感器" style="rounded=1;whiteSpace=wrap;html=1;fontFamily=Architects Daughter;fontSource=https%3A%2F%2Ffonts.googleapis.com%2Fcss%3Ffamily%3DArchitects%2BDaughter;" parent="1" vertex="1">
                    <mxGeometry x="2250" y="-500" width="120" height="60" as="geometry"/>
                </mxCell>
                <mxCell id="C5JoF0SjJhYjnjkmCWUG-238" value="PLC" style="rounded=1;whiteSpace=wrap;html=1;fontFamily=Architects Daughter;fontSource=https%3A%2F%2Ffonts.googleapis.com%2Fcss%3Ffamily%3DArchitects%2BDaughter;" parent="1" vertex="1">
                    <mxGeometry x="2490" y="-500" width="120" height="60" as="geometry"/>
                </mxCell>
                <mxCell id="C5JoF0SjJhYjnjkmCWUG-241" value="RTU" style="rounded=1;whiteSpace=wrap;html=1;fontFamily=Architects Daughter;fontSource=https%3A%2F%2Ffonts.googleapis.com%2Fcss%3Ffamily%3DArchitects%2BDaughter;" parent="1" vertex="1">
                    <mxGeometry x="2490" y="-413" width="120" height="60" as="geometry"/>
                </mxCell>
            </root>
        </mxGraphModel>
    </diagram>
</mxfile>